<?xml version="1.0" encoding="UTF-8"?>
<svg version="1.1" xmlns="http://www.w3.org/2000/svg" width="292" height="335">
<path d="M0 0 C7.51407696 7.41691217 10.83578652 14.29344438 11.09765625 24.98832703 C11.09092872 26.520487 11.07888359 28.05262966 11.0625 29.5847168 C11.05305962 31.32801688 11.04387549 33.07131837 11.03491211 34.81462097 C11.02861786 35.73227926 11.02232361 36.64993755 11.01583862 37.59540367 C10.98868801 42.48742215 10.9987515 47.37941158 11.00390625 52.27148438 C11.01010535 58.48206449 11.00483387 64.69173435 10.94873047 70.90209961 C10.90426029 75.93457929 10.90402461 80.9653919 10.93286133 85.99796486 C10.93592582 87.90639178 10.92319901 89.81491683 10.89379883 91.72311974 C10.58456693 104.53778352 10.58456693 104.53778352 16.43896484 115.49926758 C17.95919077 116.99963243 19.47951903 118.49989361 21 120 C25.11702712 127.16360738 24.45829135 135.69091015 24.39111328 143.7109375 C24.37503239 145.9953991 24.39102139 148.27809214 24.41015625 150.5625 C24.43429784 161.48999513 24.00624143 168.84853469 16.36328125 177.08984375 C10.61466933 183.77424914 10.88035452 190.10332825 11.1875 198.5625 C11.5821425 215.67117259 7.98797902 224.46682562 -3.7890625 236.88671875 C-11.00807654 243.67806609 -20.26523913 246.10206827 -30 246 C-45.29852154 245.0118602 -57.74873147 239.88351403 -68.3125 228.6875 C-72.83071527 223.1150345 -75.25373163 216.08954953 -76 209 C-76.886875 209.0825 -77.77375 209.165 -78.6875 209.25 C-88.35988701 209.21076111 -97.60407537 204.98371067 -105 199 C-105.92039062 198.28263672 -105.92039062 198.28263672 -106.859375 197.55078125 C-114.94367131 190.45019356 -120.08986388 178.60658636 -121 168 C-121.26741409 163.14197745 -121.18438193 158.73472204 -120.0625 154 C-119.47945308 150.08413083 -120.91306309 148.20315863 -123.1875 145.0625 C-124.15816406 143.79792969 -124.15816406 143.79792969 -125.1484375 142.5078125 C-133.72985271 130.88488304 -134.33814727 116.23722358 -132.375 102.375 C-129.82141203 90.38194199 -122.78229576 79.76637873 -112.75390625 72.71875 C-109.65061742 70.1869635 -109.65061742 70.1869635 -109.37109375 66.21484375 C-109.37192657 64.78889093 -109.39502199 63.36282023 -109.4375 61.9375 C-109.24234877 49.03952642 -104.20478133 39.8755685 -95.6875 30.4375 C-85.88969495 21.55111868 -76.60127001 15.68481906 -63 16 C-62.7628125 15.278125 -62.525625 14.55625 -62.28125 13.8125 C-58.32910065 5.1370502 -49.64558189 -0.66464861 -41 -4 C-27.70945584 -8.58294626 -11.39742946 -9.37121978 0 0 Z M-50 15 C-55.06266779 21.46197659 -54.92558074 29.12798164 -54 37 C-52.63724247 41.38076688 -50.48505372 44.97230241 -47 48 C-46.34 48 -45.68 48 -45 48 C-45 50.64 -45 53.28 -45 56 C-47.84807004 56.97251172 -49.95045189 57.50951217 -52.74609375 56.15234375 C-59.16317291 51.25020978 -63.14540711 43.63841537 -64.59375 35.77734375 C-64.83567246 33.17331725 -64.98970733 30.61433704 -65 28 C-74.40815433 28.44800735 -80.94390657 31.79376885 -88 38 C-89.99344438 40.56529384 -89.99344438 40.56529384 -91.6875 43.375 C-92.26886719 44.29023437 -92.85023437 45.20546875 -93.44921875 46.1484375 C-96.13941851 51.09515242 -97.26220244 55.24969999 -97.125 60.875 C-97.09792969 62.32519531 -97.09792969 62.32519531 -97.0703125 63.8046875 C-97.04710938 64.52914062 -97.02390625 65.25359375 -97 66 C-95.88882813 65.95359375 -94.77765625 65.9071875 -93.6328125 65.859375 C-82.69098768 65.53817195 -74.19359521 66.05418654 -65.51000977 73.48608398 C-62.78758084 76.21555557 -60.83945925 79.42728941 -58.8125 82.6875 C-57.97027124 84.02816459 -57.12280828 85.3655587 -56.26953125 86.69921875 C-55.90448486 87.28533936 -55.53943848 87.87145996 -55.16333008 88.4753418 C-53.0835251 91.20113027 -51.19513469 91.96877845 -47.875 92.5 C-42.58931767 91.81797647 -38.86467935 89.65037181 -35 86 C-31.91344263 81.31363358 -30.09357755 76.84894043 -28.8125 71.375 C-28.64669434 70.68422363 -28.48088867 69.99344727 -28.31005859 69.28173828 C-26.36020622 60.75137911 -24.6292699 52.32699528 -28 44 C-30.09145088 41.47583514 -31.73545798 40.12919494 -34.6875 38.6875 C-37 37 -37 37 -37.8125 33.3125 C-37.874375 32.219375 -37.93625 31.12625 -38 30 C-31.62129467 29.33555153 -27.99105018 31.04421132 -23 35 C-17.86785663 40.27084995 -15.82868534 45.51710176 -15.5625 52.75 C-15.93369094 66.74228463 -18.72782362 84.36562456 -29.1875 94.5 C-35.78031921 99.43002853 -43.84515094 101.95139906 -52 101 C-60.35483385 98.55116939 -63.82693892 92.75136839 -68.5 85.875 C-71.91327903 80.91366301 -75.12184332 76.95938556 -81 75 C-89.77169068 74.18780642 -99.00065821 76.58698636 -106.3125 81.5625 C-115.42767061 89.19066185 -121.08638038 99.65412056 -122.23828125 111.4375 C-122.5470488 122.09810591 -119.96532855 131.91896685 -112.8984375 140.07421875 C-103.99742103 149.10343916 -92.96168268 153.07123595 -80.4609375 154.4453125 C-77.68804178 155.07031439 -76.6447559 155.70291719 -75 158 C-75.1875 160.625 -75.1875 160.625 -76 163 C-84.46079424 167.23039712 -98.15835806 161.57231373 -106.48828125 158.8671875 C-107.31714844 158.58101562 -108.14601563 158.29484375 -109 158 C-110.77889841 167.88038753 -109.246755 176.78448448 -103.5078125 185.15234375 C-97.29364086 192.76711884 -90.69423813 196.54967862 -81 197.6875 C-79.66753919 197.8022897 -78.33439289 197.9104227 -77 198 C-76.731875 197.175 -76.46375 196.35 -76.1875 195.5 C-75.795625 194.345 -75.40375 193.19 -75 192 C-74.67322266 191.02546875 -74.67322266 191.02546875 -74.33984375 190.03125 C-70.73139512 179.77773477 -64.59355558 173.4433252 -54.89453125 168.76171875 C-51.09935753 167.23582416 -47.83720773 166.88372095 -43.75 166.9375 C-42.85796875 166.94652344 -41.9659375 166.95554688 -41.046875 166.96484375 C-40.03367188 166.98224609 -40.03367188 166.98224609 -39 167 C-38.875 172.75 -38.875 172.75 -40 175 C-42.22265625 175.67578125 -42.22265625 175.67578125 -45.0625 176.3125 C-52.3767912 178.22882532 -57.75577493 180.63200808 -61.9375 187.125 C-66.29225267 194.71260296 -65.96887918 203.71698985 -64.421875 212.15234375 C-61.78893241 220.68547132 -56.50665739 225.35038628 -48.95703125 229.7890625 C-40.34983269 234.30115914 -31.86817675 236.60354056 -22.22265625 234.3515625 C-12.88908065 231.35559996 -7.98020382 226.08039761 -2.9453125 217.89453125 C-0.96294471 213.92160407 -0.85923053 210.16496731 -0.7890625 205.765625 C-0.76070313 204.55132812 -0.73234375 203.33703125 -0.703125 202.0859375 C-0.65136278 199.54441236 -0.60699809 197.00272497 -0.5703125 194.4609375 C-0.30824769 184.13121616 0.43848037 178.66606251 7.6171875 171.15625 C13.46431281 164.2716932 13.37500577 157.62070704 13.17333984 148.96630859 C13.12499664 146.49982861 13.17300492 144.04806443 13.23046875 141.58203125 C13.25993039 133.63660772 12.93279727 128.10041582 7.6171875 121.78125 C6.82683105 121.00845703 6.03647461 120.23566406 5.22216797 119.43945312 C0.1523077 113.87385834 -0.43820163 108.28927832 -0.36889648 101.08642578 C-0.3745462 99.78984543 -0.3745462 99.78984543 -0.38031006 98.46707153 C-0.38671815 96.60050666 -0.38643551 94.73390911 -0.38012505 92.8673439 C-0.37097489 89.90685641 -0.38128383 86.94699691 -0.39674377 83.98654175 C-0.43673271 75.57323119 -0.43804895 67.15997187 -0.43579102 58.74658203 C-0.43573977 53.59014591 -0.45498046 48.43404914 -0.48512459 43.27770615 C-0.49590108 40.37225724 -0.48384841 37.46746945 -0.47129822 34.56204224 C-0.48020853 32.76547608 -0.49028497 30.96891521 -0.50170898 29.17236328 C-0.49196548 28.37415161 -0.48222198 27.57593994 -0.47218323 26.75354004 C-0.55259047 20.37684795 -2.16447959 14.37609647 -6.34107113 9.40326118 C-10.73835172 5.39647346 -15.45085252 4.19608827 -21.25 3.75 C-32.43977931 4.49598529 -41.87736695 6.87736695 -50 15 Z " fill="#4D8C6E" transform="translate(165,45)"/>
<path d="M0 0 C4.71612248 3.75728907 8.01996625 8.9556039 9.1875 14.875 C9.92486456 22.00285742 8.07854973 26.87895615 4.1875 32.875 C1.38770017 35.60651203 -1.33963228 37.17160611 -4.8125 38.875 C-5.83676115 63.98752176 -5.80151947 89.02236531 -5.41760254 114.14880371 C-5.34524967 118.99105584 -5.28145346 123.83342132 -5.21679688 128.67578125 C-5.09009615 138.07564535 -4.95441674 147.47535411 -4.8125 156.875 C8.14360085 147.04746265 8.14360085 147.04746265 14.76660156 132.79589844 C15.38407551 126.26635964 15.12682745 119.78954426 14.8125 113.25 C14.77031745 110.97149313 14.7364094 108.69281745 14.7109375 106.4140625 C14.6315653 100.89546548 14.45110651 95.3877135 14.1875 89.875 C13.27871094 89.45154297 13.27871094 89.45154297 12.3515625 89.01953125 C8.62595825 87.04913044 6.0423026 84.23491323 3.8125 80.6875 C2.55045677 75.00830548 3.3206835 69.74732363 5.75 64.5 C9.76885522 60.17200207 13.85746083 58.20786274 19.6875 57.375 C25.28252752 58.17428965 29.4117425 60.23943388 33.5625 64.0625 C36.11376496 68.4781509 37.69483848 72.92081031 36.8125 78.05859375 C34.85393387 83.94542035 31.32132856 87.45244762 26.1875 90.875 C25.75917397 93.11723095 25.75917397 93.11723095 25.86621094 95.74853516 C25.86901062 96.76364166 25.8718103 97.77874817 25.87469482 98.82461548 C25.89026428 99.926633 25.90583374 101.02865051 25.921875 102.1640625 C25.91910209 104.49088704 25.91515832 106.81771043 25.91015625 109.14453125 C25.91849108 112.81823014 25.93740114 116.49106061 25.97802734 120.16455078 C26.0109891 123.70674527 26.00048575 127.24679682 25.984375 130.7890625 C26.00804138 131.87893463 26.03170776 132.96880676 26.05609131 134.09170532 C25.99170166 140.87939209 24.87812679 144.43070732 20.0017395 149.22613525 C19.40304047 149.77026062 18.80434143 150.31438599 18.1875 150.875 C16.99362671 152.13292358 16.99362671 152.13292358 15.77563477 153.41625977 C15.06721436 154.12580811 14.35879395 154.83535645 13.62890625 155.56640625 C12.83033203 156.36626953 12.03175781 157.16613281 11.20898438 157.99023438 C10.39751953 158.79783203 9.58605469 159.60542969 8.75 160.4375 C7.94240234 161.24896484 7.13480469 162.06042969 6.30273438 162.89648438 C1.94419981 167.24799471 -2.47907628 171.42912232 -7.20336914 175.38256836 C-9.05019552 176.97929275 -9.05019552 176.97929275 -10.8125 179.875 C-11.4725 179.875 -12.1325 179.875 -12.8125 179.875 C-13.0290625 180.43058594 -13.245625 180.98617187 -13.46875 181.55859375 C-15.26808975 184.66036257 -17.6154316 186.5846627 -20.3125 188.9375 C-23.26621116 191.52199726 -25.6326612 193.6052418 -27.8125 196.875 C-28.8025 196.875 -29.7925 196.875 -30.8125 196.875 C-31.43099789 187.21956064 -31.43099789 187.21956064 -29.375 182.75 C-26.8125 179.875 -26.8125 179.875 -24.63265324 178.0874033 C-19.92247713 174.04115669 -17.25895294 171.09598377 -16.69224548 164.78147888 C-16.64878563 162.43341501 -16.65403005 160.08411991 -16.69897461 157.73608398 C-16.6879068 156.44729843 -16.67683899 155.15851288 -16.66543579 153.83067322 C-16.63631 150.32222084 -16.66198136 146.81612104 -16.69802547 143.30781436 C-16.72629498 139.63219954 -16.70344062 135.95689739 -16.68617249 132.28126526 C-16.66121189 125.33261678 -16.68175974 118.38488965 -16.71894604 111.43632609 C-16.75906984 103.52082193 -16.74802378 95.6056426 -16.73282993 87.69008148 C-16.70273451 71.41807753 -16.73640917 55.14686139 -16.8125 38.875 C-17.59423584 38.73328369 -18.37597168 38.59156738 -19.18139648 38.44555664 C-24.1824822 37.3610677 -28.05460623 34.07359137 -31.21484375 30.12109375 C-34.89809271 23.84253057 -34.97706407 16.48698221 -33.22265625 9.5390625 C-30.30116903 2.51133748 -24.06682656 -0.70493023 -17.375 -3.625 C-11.15138896 -4.49848927 -5.3291009 -3.42502128 0 0 Z M-21.8125 10.875 C-24.1613388 14.55144335 -24.021546 17.82982879 -23.359375 22.0078125 C-22.53953568 24.80697817 -21.12858123 26.1719991 -18.8125 27.875 C-15.15961807 29.09262731 -12.65495864 29.26575851 -8.8125 28.875 C-5.62250391 26.98463195 -3.42822929 25.55019645 -2.11328125 21.97265625 C-1.46540921 18.34317953 -1.73930555 16.09051698 -2.9375 12.5625 C-5.03554559 9.55530132 -6.43808001 8.2875479 -9.8125 6.875 C-15.03536158 6.097127 -17.81827516 7.51622002 -21.8125 10.875 Z M14.1875 70.875 C13.10181497 72.71767868 13.10181497 72.71767868 13.1875 74.875 C14.12553782 77.6609011 14.12553782 77.6609011 16.1875 79.875 C19.13479537 81.03311388 19.13479537 81.03311388 22.1875 80.875 C24.20701062 79.93902685 24.20701062 79.93902685 25.1875 77.875 C25.85430368 74.91779372 25.85430368 74.91779372 25.1875 71.875 C20.87992719 67.56742719 18.78459278 66.72278717 14.1875 70.875 Z " fill="#4B8C6C" transform="translate(222.8125,71.125)"/>
<path d="M0 0 C0.66 0.66 1.32 1.32 2 2 C1.67 2.66 1.34 3.32 1 4 C3.31 4 5.62 4 8 4 C9.14189905 8.53984676 9.13428982 12.99713784 9.11352539 17.64575195 C9.11367142 18.5047963 9.11381744 19.36384064 9.1139679 20.24891663 C9.11327312 23.07873082 9.10550111 25.9084786 9.09765625 28.73828125 C9.09579052 30.70411646 9.09436735 32.66995213 9.09336853 34.63578796 C9.08955553 39.80279836 9.07973562 44.96978052 9.06866455 50.13677979 C9.05842427 55.41214618 9.0538653 60.68751715 9.04882812 65.96289062 C9.03811227 76.30860614 9.02105045 86.65430072 9 97 C8.34 96.34 7.68 95.68 7 95 C6.66126212 98.17037709 6.66126212 98.17037709 9.1875 100.375 C11.01944834 102.08481846 12.85271631 103.79322447 14.6875 105.5 C19.70675037 110.92621661 20.17904436 117.54208581 19.96083069 124.71115112 C19.92027809 125.74745163 19.92027809 125.74745163 19.87890625 126.8046875 C19.85529526 127.5286673 19.83168427 128.25264709 19.80735779 128.99856567 C19.73132307 131.29094051 19.64704376 133.58292481 19.5625 135.875 C19.50921886 137.43748145 19.45647897 138.99998146 19.40429688 140.5625 C19.2757905 144.37524316 19.13989371 148.18765836 19 152 C18.01 152.33 17.02 152.66 16 153 C16.66 153.66 17.32 154.32 18 155 C18 157.84567839 17.43496826 159.48791825 15.58984375 161.66015625 C14.10097935 163.14902065 12.55350258 164.57871041 11 166 C8 165 8 165 6 163 C6 163.99 6 164.98 6 166 C4.68 166.33 3.36 166.66 2 167 C2.59885941 163.6989701 3.69685597 161.78574977 5.875 159.25 C6.64457031 158.32960937 6.64457031 158.32960937 7.4296875 157.390625 C9 156 9 156 12 156 C12.03022983 150.32482714 12.01436569 144.65226247 11.95727539 138.97729492 C11.94420142 137.05025583 11.9433408 135.12309112 11.95532227 133.19604492 C12.46991884 120.57639929 12.46991884 120.57639929 7.62890625 109.37109375 C5.84646463 107.52467882 5.84646463 107.52467882 4 106 C0.8000011 103.20676822 -0.75818379 100.36497288 -1.19785213 96.06499767 C-1.29310157 93.68408407 -1.32423852 91.30981353 -1.3347168 88.92700195 C-1.34636871 88.02240234 -1.35802063 87.11780273 -1.37002563 86.18579102 C-1.40593939 83.20330642 -1.4278542 80.22090279 -1.44921875 77.23828125 C-1.47047338 75.16512838 -1.49244066 73.0919827 -1.51509094 71.0188446 C-1.56045478 66.6788553 -1.59926036 62.3388738 -1.63305664 57.9987793 C-1.676681 52.42648149 -1.73340864 46.85441433 -1.7946043 41.28228474 C-1.84070301 37.0042215 -1.88152998 32.72612148 -1.92057228 28.44798851 C-1.93965989 26.3925983 -1.96002268 24.33721953 -1.98166466 22.28185463 C-2.01072592 19.41618964 -2.03308938 16.5505526 -2.0534668 13.68481445 C-2.06327072 12.83024155 -2.07307465 11.97566864 -2.08317566 11.09519958 C-2.11445965 5.22891931 -2.11445965 5.22891931 -1 3 C-1.66 2.67 -2.32 2.34 -3 2 C-2.01 2 -1.02 2 0 2 C0 1.34 0 0.68 0 0 Z " fill="#4A8A6B" transform="translate(167,57)"/>
<path d="M0 0 C2.203125 0.0078125 2.203125 0.0078125 4.3125 0.625 C5.859375 2.4921875 5.859375 2.4921875 7.25 4.875 C9.82861227 9.25794953 11.97183913 11.33525229 16.75390625 13.109375 C22.96416745 14.36090856 29.28282729 13.27989119 35.3125 11.5625 C44.47435263 9.07245292 52.99178273 10.23436321 61.3125 14.625 C67.75399587 18.34675317 69.99702853 25.30500057 72.625 31.9375 C73.650806 37.43955038 74.01201762 43.05894585 73.3125 48.625 C71.953125 50.52734375 71.953125 50.52734375 70.3125 51.625 C66.97057308 51.38046876 65.70706443 51.01956443 63.3125 48.625 C62.9482885 46.44840273 62.66951041 44.25712909 62.4375 42.0625 C61.05131299 31.55957233 61.05131299 31.55957233 54.6875 23.5625 C48.40624081 21.81770578 42.83523549 21.95155816 36.6875 24.125 C28.60340225 26.79415708 18.14640334 27.25034301 10.1875 23.9375 C3.01997444 20.01307536 -1.59905646 15.19967402 -4.6875 7.625 C-5.0625 4.125 -5.0625 4.125 -4.6875 1.625 C-3.6875 0.625 -3.6875 0.625 0 0 Z " fill="#559174" transform="translate(79.6875,158.375)"/>
<path d="M0 0 C0.33 0 0.66 0 1 0 C1.00808685 1.12451065 1.01617371 2.2490213 1.02450562 3.40760803 C1.10206047 14.01586783 1.18982339 24.62400085 1.28752708 35.23209476 C1.33742836 40.68554717 1.38375902 46.13898078 1.421875 51.5925293 C1.45880561 56.85755057 1.50518681 62.12241225 1.55806351 67.38729668 C1.57656613 69.39385612 1.59168927 71.40044972 1.60334396 73.40706062 C1.62027713 76.22214147 1.64932927 79.03686008 1.68115234 81.85180664 C1.68331253 82.67755692 1.68547272 83.50330719 1.68769836 84.3540802 C1.75808703 89.24261621 2.21227725 93.42074483 4 98 C4.99 98.33 5.98 98.66 7 99 C8.31640625 100.55859375 8.31640625 100.55859375 9.5625 102.4375 C10.96589896 104.53166854 12.20558012 106.20558012 14 108 C14.17553419 111.08524939 14.23122797 114.07964202 14.1953125 117.1640625 C14.1924826 118.07127045 14.18965271 118.97847839 14.18673706 119.91317749 C14.17552153 122.81725123 14.15041463 125.72101912 14.125 128.625 C14.11497197 130.59114139 14.10584581 132.5572876 14.09765625 134.5234375 C14.07557772 139.34907659 14.04103865 144.1744864 14 149 C13.01 149 12.02 149 11 149 C10.7525 149.5775 10.505 150.155 10.25 150.75 C8.83400344 153.29879381 7.05276785 154.94723215 5 157 C4.67 157.99 4.34 158.98 4 160 C5.32 159.67 6.64 159.34 8 159 C8 158.01 8 157.02 8 156 C9.65 156.66 11.3 157.32 13 158 C15.19602066 155.79124879 17.26080867 153.59005725 19 151 C19.05050452 148.14054182 19.05050452 148.14054182 18 146 C18.66 145.67 19.32 145.34 20 145 C20.19350491 140.42892458 20.37201718 135.85759033 20.53710938 131.28540039 C20.59523985 129.73250936 20.65734981 128.17976168 20.72363281 126.62719727 C20.81861145 124.38584531 20.89891073 122.14435505 20.9765625 119.90234375 C21.00875885 119.21663803 21.0409552 118.53093231 21.0741272 117.82444763 C21.2159112 113.1843307 20.45430797 109.39238939 19 105 C18.7525 104.154375 18.505 103.30875 18.25 102.4375 C16.71694202 99.44803694 14.71421157 97.57341193 12.2421875 95.33203125 C11 94 11 94 11 92 C10.01 91.67 9.02 91.34 8 91 C8 61.96 8 32.92 8 3 C8.33 3 8.66 3 9 3 C9.33 31.71 9.66 60.42 10 90 C10.66 90 11.32 90 12 90 C14.05859375 92.08984375 14.05859375 92.08984375 16.4375 94.9375 C17.21996094 95.85402344 18.00242188 96.77054687 18.80859375 97.71484375 C24.46668492 106.19693764 24.47401598 114.81363076 24.39111328 124.7109375 C24.37503239 126.9953991 24.39102139 129.27809214 24.41015625 131.5625 C24.42878169 142.32257718 23.78786351 150.54458335 16.375 158.875 C11.57327384 164.32938797 10.81787945 168.04759073 10.4375 175.1875 C10.39431641 175.93708984 10.35113281 176.68667969 10.30664062 177.45898438 C10.20077315 179.30578375 10.0999024 181.15286834 10 183 C9.34 183 8.68 183 8 183 C7.95101562 181.92878906 7.90203125 180.85757813 7.8515625 179.75390625 C7.77654706 178.35674361 7.7009987 176.9596095 7.625 175.5625 C7.5940625 174.85544922 7.563125 174.14839844 7.53125 173.41992188 C7.42719371 171.60760812 7.22080108 169.80182012 7 168 C4.88214887 166.88214887 4.88214887 166.88214887 2 166 C1.67 174.91 1.34 183.82 1 193 C0.34 193 -0.32 193 -1 193 C-1.08767743 188.50012438 -1.14062009 184.000471 -1.1875 179.5 C-1.21263672 178.2315625 -1.23777344 176.963125 -1.26367188 175.65625 C-1.34591147 165.12958238 -0.67566569 159.79368742 6.6171875 152.15625 C12.46431281 145.2716932 12.37500577 138.62070704 12.17333984 129.96630859 C12.12499664 127.49982861 12.17300492 125.04806443 12.23046875 122.58203125 C12.25993039 114.63660772 11.93279727 109.10041582 6.6171875 102.78125 C5.82683105 102.00845703 5.03647461 101.23566406 4.22216797 100.43945312 C-0.88584463 94.83197545 -1.4384856 89.2139862 -1.35644531 81.95947266 C-1.35848969 81.08223541 -1.36053406 80.20499817 -1.36264038 79.30117798 C-1.36563173 76.42192261 -1.34722749 73.5432491 -1.328125 70.6640625 C-1.32506563 68.65864198 -1.32319086 66.65321934 -1.32244873 64.64779663 C-1.31785675 60.45668335 -1.30346781 56.26576339 -1.28125 52.07470703 C-1.25285883 46.69080173 -1.24202637 41.30704779 -1.2375679 35.92307472 C-1.23342256 31.78826371 -1.22361432 27.65348353 -1.21169281 23.5186882 C-1.20598091 21.53226341 -1.20122527 19.54583565 -1.19742584 17.55940628 C-1.19058926 14.79427043 -1.17697229 12.02925721 -1.16113281 9.26416016 C-1.16001495 8.43718628 -1.15889709 7.6102124 -1.15774536 6.75817871 C-1.11469431 1.11469431 -1.11469431 1.11469431 0 0 Z " fill="#559477" transform="translate(165,64)"/>
<path d="M0 0 C2.203125 0.0078125 2.203125 0.0078125 4.3125 0.625 C6.06443486 2.73970925 7.31164358 4.98136868 8.6875 7.35546875 C11.39058324 11.13068837 14.90258667 12.50344765 19.3125 13.625 C21.76199038 13.88968852 23.84209769 13.83524701 26.3125 13.625 C26.3125 14.285 26.3125 14.945 26.3125 15.625 C26.93253906 15.4084375 27.55257812 15.191875 28.19140625 14.96875 C36.57894487 12.33161995 46.77849254 10.78033085 55.3125 13.625 C54.9825 14.615 54.6525 15.605 54.3125 16.625 C52.25 17.3125 52.25 17.3125 50.3125 17.625 C51.6325 17.955 52.9525 18.285 54.3125 18.625 C53.9825 19.285 53.6525 19.945 53.3125 20.625 C51.99678397 20.3702486 50.68489624 20.09565859 49.375 19.8125 C48.64410156 19.66167969 47.91320312 19.51085937 47.16015625 19.35546875 C46.55042969 19.11441406 45.94070312 18.87335938 45.3125 18.625 C44.8175 17.14 44.8175 17.14 44.3125 15.625 C44.3125 16.615 44.3125 17.605 44.3125 18.625 C34.59671627 23.21255387 27.06056241 24.30587273 16.3125 23.625 C15.42046875 23.6146875 14.5284375 23.604375 13.609375 23.59375 C8.56335537 23.38779002 5.52353375 22.02660848 1.88671875 18.5 C-1.77177148 14.14249303 -4.45106055 9.83176823 -5.0625 4.125 C-4.47372292 0.19981948 -4.16103245 0.70525974 0 0 Z " fill="#4D8D6D" transform="translate(79.6875,158.375)"/>
<path d="M0 0 C5.09281446 2.83700303 7.64017854 6.01472402 9.25 11.625 C10.16020115 16.50920438 9.32462926 20.05763901 6.8125 24.3125 C4.17495072 27.41162041 2.67242365 29.02585878 -1.1875 30.3125 C-0.1875 27.3125 -0.1875 27.3125 2.25 25.0625 C5.25504411 21.83757461 6.04290411 19.62223697 6.8125 15.3125 C6.53515062 12.49105097 6.53515062 12.49105097 5.8125 10.3125 C3.5025 9.9825 1.1925 9.6525 -1.1875 9.3125 C-0.1975 10.7975 -0.1975 10.7975 0.8125 12.3125 C1.42089155 16.31050164 1.14501303 17.83451252 -1.1875 21.1875 C-5.21792707 24.04238584 -7.34474241 23.72290319 -12.1875 23.3125 C-12.5175 22.3225 -12.8475 21.3325 -13.1875 20.3125 C-11.1875 19.3125 -11.1875 19.3125 -8.1875 19.875 C-7.1975 20.019375 -6.2075 20.16375 -5.1875 20.3125 C-2.89819764 18.43111241 -2.89819764 18.43111241 -2.8125 15.375 C-2.91511163 12.30101824 -2.91511163 12.30101824 -4.75 10.375 C-8.15410729 8.89115836 -10.62211808 9.55828459 -14.1875 10.3125 C-14.1875 9.6525 -14.1875 8.9925 -14.1875 8.3125 C-17.73268884 9.71009905 -17.73268884 9.71009905 -21.1875 11.3125 C-21.11143308 18.21883792 -21.11143308 18.21883792 -17.9375 24.125 C-16.15965416 25.53919556 -14.35893099 26.92529821 -12.5324707 28.27612305 C-9.06365826 32.76770246 -9.65596884 36.57466527 -9.91796875 42.08203125 C-9.94723953 43.11817062 -9.97651031 44.15431 -10.00666809 45.22184753 C-10.10546615 48.52418096 -10.23974964 51.82397828 -10.375 55.125 C-10.44830748 57.36646103 -10.5192983 59.6079991 -10.58789062 61.84960938 C-10.76090987 67.33841637 -10.96306047 72.82556805 -11.1875 78.3125 C-11.5175 78.3125 -11.8475 78.3125 -12.1875 78.3125 C-12.96802377 72.13042768 -13.32499927 66.12916708 -13.28515625 59.90234375 C-13.2837413 59.04943253 -13.28232635 58.1965213 -13.28086853 57.31776428 C-13.27532939 54.62847184 -13.2627888 51.93926672 -13.25 49.25 C-13.24497712 47.41211059 -13.2404156 45.57421985 -13.23632812 43.73632812 C-13.22538 39.26168578 -13.20815839 34.78710762 -13.1875 30.3125 C-13.79335937 30.03019531 -14.39921875 29.74789062 -15.0234375 29.45703125 C-18.74904175 27.48663044 -21.3326974 24.67241323 -23.5625 21.125 C-24.82454323 15.44580548 -24.0543165 10.18482363 -21.625 4.9375 C-15.62997359 -1.51868229 -8.24425603 -3.73353554 0 0 Z " fill="#498E6A" transform="translate(250.1875,130.6875)"/>
<path d="M0 0 C1.32 0 2.64 0 4 0 C4.33 0.66 4.66 1.32 5 2 C5.33 2 5.66 2 6 2 C6 7.28 6 12.56 6 18 C6.66 18 7.32 18 8 18 C8 12.72 8 7.44 8 2 C8.33 2 8.66 2 9 2 C9.11734237 6.45810752 9.18763372 10.91581128 9.25 15.375 C9.28351563 16.62667969 9.31703125 17.87835938 9.3515625 19.16796875 C9.43345955 26.98913667 8.61528871 33.01601218 5 40 C4.34 39.67 3.68 39.34 3 39 C2.68289062 39.47308594 2.36578125 39.94617188 2.0390625 40.43359375 C-2.19755536 46.43741962 -7.19225574 51.48750805 -13 56 C-13.66 56 -14.32 56 -15 56 C-14.67 53.69 -14.34 51.38 -14 49 C-14.66 48.67 -15.32 48.34 -16 48 C-12.25 45 -12.25 45 -10 45 C-9.34 43.35 -8.68 41.7 -8 40 C-7.34 40 -6.68 40 -6 40 C-5.87625 39.4225 -5.7525 38.845 -5.625 38.25 C-5 36 -5 36 -3.875 34 C-2.80776772 31.56061193 -3.12177981 30.45901654 -4 28 C-3.01 28 -2.02 28 -1 28 C-1.00523682 27.18732666 -1.01047363 26.37465332 -1.01586914 25.53735352 C-1.03656994 21.87907678 -1.04963803 18.22081233 -1.0625 14.5625 C-1.07506836 12.6434082 -1.07506836 12.6434082 -1.08789062 10.68554688 C-1.09272461 8.86313477 -1.09272461 8.86313477 -1.09765625 7.00390625 C-1.10289307 5.87799072 -1.10812988 4.7520752 -1.11352539 3.59204102 C-1 1 -1 1 0 0 Z " fill="#4A8A6A" transform="translate(167,229)"/>
<path d="M0 0 C0.66 0.66 1.32 1.32 2 2 C1.54109375 2.60585937 1.0821875 3.21171875 0.609375 3.8359375 C-7.73264981 15.22735793 -11.47792699 26.04990461 -9.7265625 40.2109375 C-8.66631496 45.11208179 -6.45557218 49.38813211 -4.12109375 53.80078125 C-2.39828276 57.18037215 -1.83922756 58.4533737 -2.9375 62.1875 C-3.288125 63.115625 -3.63875 64.04375 -4 65 C-4.33 64.34 -4.66 63.68 -5 63 C-5.99 62.67 -6.98 62.34 -8 62 C-8.495 60.515 -8.495 60.515 -9 59 C-9.93779297 58.38318359 -9.93779297 58.38318359 -10.89453125 57.75390625 C-13.88965732 55.258894 -14.48445001 52.60737172 -15.6875 48.9375 C-16.10386719 47.68839844 -16.52023438 46.43929687 -16.94921875 45.15234375 C-17.29597656 44.11207031 -17.64273438 43.07179687 -18 42 C-18.33 41.34 -18.66 40.68 -19 40 C-19.08042472 26.66558205 -16.46190524 14.76989883 -10 3 C-9.67 3.66 -9.34 4.32 -9 5 C-8.34 5.33 -7.68 5.66 -7 6 C-7 6.66 -7 7.32 -7 8 C-5.34378848 6.34378848 -3.86364904 4.67704884 -2.375 2.875 C-1.59125 1.92625 -0.8075 0.9775 0 0 Z " fill="#4A896B" transform="translate(52,127)"/>
<path d="M0 0 C3.375 1.875 3.375 1.875 6 4 C6 4.66 6 5.32 6 6 C6.99 6 7.98 6 9 6 C9 6.66 9 7.32 9 8 C9.99 8.33 10.98 8.66 12 9 C13.39453125 10.8203125 13.39453125 10.8203125 14.8125 13.125 C19.10590021 20.86810357 19.10590021 20.86810357 26.05078125 25.46484375 C29.25457839 25.51755705 31.96855891 25.01048036 35 24 C36.20882096 21.99983534 36.20882096 21.99983534 37 20 C37.99 20 38.98 20 40 20 C40.99 19.67 41.98 19.34 43 19 C43 18.34 43 17.68 43 17 C43.66 17 44.32 17 45 17 C45.495 15.515 45.495 15.515 46 14 C46 14.66 46 15.32 46 16 C46.99 15.67 47.98 15.34 49 15 C49.66 16.32 50.32 17.64 51 19 C47.54752936 24.84264263 43.80282906 28.30735882 37.125 30.25 C36.09375 30.4975 35.0625 30.745 34 31 C33.67 30.67 33.34 30.34 33 30 C30.97080157 30.25723969 30.97080157 30.25723969 29 31 C28.67 31.66 28.34 32.32 28 33 C28 32.34 28 31.68 28 31 C27.11248047 30.97873047 27.11248047 30.97873047 26.20703125 30.95703125 C22.18892524 30.71450283 19.66972316 30.49431948 16.375 28.0625 C7.56923077 16.70769231 7.56923077 16.70769231 6 12 C4.68596724 11.29605388 3.3479743 10.63654342 2 10 C1.21625 9.319375 0.4325 8.63875 -0.375 7.9375 C-3.33050311 5.75605723 -5.38474176 5.33630309 -9 5 C-8.625 3.0625 -8.625 3.0625 -8 1 C-5.13391871 -0.43304064 -3.18699217 -0.30644155 0 0 Z " fill="#4A8B6B" transform="translate(89,113)"/>
<path d="M0 0 C0.66 0.66 1.32 1.32 2 2 C0.35 4.97 -1.3 7.94 -3 11 C-3.66 11 -4.32 11 -5 11 C-5.226875 11.763125 -5.45375 12.52625 -5.6875 13.3125 C-7.26731682 16.54736301 -8.83282717 17.41641358 -12 19 C-11.814375 19.5775 -11.62875 20.155 -11.4375 20.75 C-10.95627217 23.22488597 -11.32212267 24.60985476 -12 27 C-6.54394353 23.04095676 -1.81364952 18.99716125 2.4921875 13.796875 C3.9167841 12.09916921 5.41016426 10.54223587 7 9 C6.6189455 14.22728608 3.88424952 16.92866505 0.4375 20.5625 C-0.10825684 21.14169189 -0.65401367 21.72088379 -1.21630859 22.31762695 C-5.08184935 26.30236187 -8.57516043 29.42851869 -14 31 C-14.7321875 31.22945313 -15.464375 31.45890625 -16.21875 31.6953125 C-28.08901714 34.73995894 -39.72245209 32.02769568 -51 28 C-50.67 27.34 -50.34 26.68 -50 26 C-48.35 26 -46.7 26 -45 26 C-45 26.66 -45 27.32 -45 28 C-39.39 28.66 -33.78 29.32 -28 30 C-28 29.01 -28 28.02 -28 27 C-27.01 26.67 -26.02 26.34 -25 26 C-24.67 25.34 -24.34 24.68 -24 24 C-24.90878906 24.05220703 -24.90878906 24.05220703 -25.8359375 24.10546875 C-38.03492759 24.49958997 -48.33926206 20.12539171 -57.87109375 12.50390625 C-59.25 11.1875 -59.25 11.1875 -61 9 C-61 8.34 -61 7.68 -61 7 C-57.86505663 8.42305295 -55.45067742 10.1741161 -52.8125 12.375 C-46.88723015 17.05284462 -40.62157712 20.36486857 -33 21 C-32.34644531 21.06316406 -31.69289062 21.12632812 -31.01953125 21.19140625 C-23.54555626 21.60148275 -16.32697032 19.93781893 -10.62890625 14.90625 C-7.8386315 11.83438789 -5.46984597 8.82107887 -3.40625 5.21484375 C-2.9421875 4.48394531 -2.478125 3.75304687 -2 3 C-1.34 3 -0.68 3 0 3 C0 2.01 0 1.02 0 0 Z " fill="#4B8B6C" transform="translate(164,258)"/>
<path d="M0 0 C4.71612248 3.75728907 8.01996625 8.9556039 9.1875 14.875 C9.92630504 22.0167821 8.06289428 26.85962152 4.1875 32.875 C0.76055822 36.47768238 -1.89235036 37.41731166 -6.8125 37.875 C-5.07435942 35.95389725 -3.60461698 34.76066434 -1.3125 33.5 C1.54707481 31.64127638 2.64613559 29.87660438 4.1875 26.875 C3.1975 26.545 2.2075 26.215 1.1875 25.875 C1.5175 25.215 1.8475 24.555 2.1875 23.875 C1.78811233 21.77678785 1.78811233 21.77678785 1.1875 19.875 C2.1775 19.545 3.1675 19.215 4.1875 18.875 C5.28414428 14.26909402 5.64809116 11.03907734 3.1875 6.875 C0.25176805 5.68218869 -2.65175992 5.07911824 -5.8125 4.875 C-6.1425 5.205 -6.4725 5.535 -6.8125 5.875 C-6.02875 6.596875 -5.245 7.31875 -4.4375 8.0625 C-1.96837562 10.70799041 -0.87989722 12.47873611 0.1875 15.875 C-2.8125 14.875 -2.8125 14.875 -4.25 12.4375 C-5.965417 9.62421612 -6.71454751 8.84864221 -9.8125 7.875 C-15.08335586 7.18749706 -17.65263775 8.70558115 -21.8125 11.875 C-22.4725 11.545 -23.1325 11.215 -23.8125 10.875 C-20.38861908 7.04830957 -17.80525057 5.15221526 -12.8125 3.875 C-13.4725 3.545 -14.1325 3.215 -14.8125 2.875 C-14.4825 1.885 -14.1525 0.895 -13.8125 -0.125 C-19.32899434 0.28873708 -23.6481921 2.28713567 -27.8125 5.875 C-28.93463894 8.53351769 -28.93463894 8.53351769 -28.8125 10.875 C-29.4725 10.875 -30.1325 10.875 -30.8125 10.875 C-30.8125 11.535 -30.8125 12.195 -30.8125 12.875 C-29.8225 13.205 -28.8325 13.535 -27.8125 13.875 C-28.8025 14.205 -29.7925 14.535 -30.8125 14.875 C-31.1425 17.515 -31.4725 20.155 -31.8125 22.875 C-32.4725 22.875 -33.1325 22.875 -33.8125 22.875 C-34.28049156 15.80312759 -34.48099759 9.57955455 -29.8125 3.875 C-20.90161315 -3.84891544 -10.41734014 -6.6952404 0 0 Z " fill="#529073" transform="translate(222.8125,71.125)"/>
<path d="M0 0 C0 0.66 0 1.32 0 2 C-2.08203125 3.40234375 -2.08203125 3.40234375 -4.8125 4.9375 C-7.9662451 6.71688576 -10.55214921 8.32764218 -13 11 C-13.763125 11.70125 -14.52625 12.4025 -15.3125 13.125 C-21.28598048 19.29336957 -21.28598048 19.29336957 -24 27 C-23.67 27.66 -23.34 28.32 -23 29 C-22 31 -22 31 -22 33 C-20.35 31.68 -18.7 30.36 -17 29 C-17.33 34.61 -17.66 40.22 -18 46 C-17.01 45.505 -17.01 45.505 -16 45 C-5.39008703 44.19099414 3.69497836 44.85140773 12.5 51.3125 C16.68300173 55.14608631 19.6059666 60.12159903 22.625 64.88208008 C24.74063034 68.52167632 24.74063034 68.52167632 28 71 C31.83936768 71.1421988 35.32016639 71.17754676 39 70 C38.505 71.485 38.505 71.485 38 73 C34.20789186 74.26403605 30.89724042 74.99580224 27 74 C22.36614688 70.23499434 19.20095997 64.97927106 16 60 C15.34 59.34 14.68 58.68 14 58 C13.30251417 56.68252676 12.63040043 55.35085807 12 54 C11.01 54 10.02 54 9 54 C8.4225 53.38125 7.845 52.7625 7.25 52.125 C2.23859476 47.39200616 -4.43283376 47.73008027 -10.9375 47.875 C-12.10635742 47.88853516 -12.10635742 47.88853516 -13.29882812 47.90234375 C-15.19935447 47.92566309 -17.09972008 47.96152414 -19 48 C-19.28875 47.21625 -19.5775 46.4325 -19.875 45.625 C-20.84912254 42.90328368 -20.84912254 42.90328368 -23 41 C-22.34 41 -21.68 41 -21 41 C-21.33 39.35 -21.66 37.7 -22 36 C-22.99 36.66 -23.98 37.32 -25 38 C-25.66 37.34 -26.32 36.68 -27 36 C-27.02578125 37.12019531 -27.0515625 38.24039063 -27.078125 39.39453125 C-27.13440635 40.86722646 -27.19175368 42.3398812 -27.25 43.8125 C-27.26417969 44.55048828 -27.27835938 45.28847656 -27.29296875 46.04882812 C-27.54187913 51.54974762 -27.54187913 51.54974762 -30.046875 54.01171875 C-31.01367188 54.50091797 -31.01367188 54.50091797 -32 55 C-32.66 54.67 -33.32 54.34 -34 54 C-33.51273438 53.505 -33.02546875 53.01 -32.5234375 52.5 C-30.43469733 49.07232382 -30.64432654 45.89236442 -30.625 42 C-30.20046305 29.11963128 -25.20789857 19.87902274 -16.6875 10.4375 C-5.17948718 0 -5.17948718 0 0 0 Z " fill="#518E71" transform="translate(86,65)"/>
<path d="M0 0 C4.56454251 0.54339792 7.9728176 1.79463821 12 4 C12 4.66 12 5.32 12 6 C12.66 6 13.32 6 14 6 C18.91327261 11.07176527 21.13077212 16.81870162 21.375 23.8125 C21.21710958 29.45269651 19.70779912 34.65296227 18 40 C17.34 40 16.68 40 16 40 C16 38.68 16 37.36 16 36 C15.67 36.99 15.34 37.98 15 39 C12.9375 40.6875 12.9375 40.6875 11 42 C11.09539062 41.14019531 11.19078125 40.28039062 11.2890625 39.39453125 C12.17170105 29.98314115 12.01496806 21.04490417 9 12 C7.3523962 11.28752268 5.68236471 10.62599617 4 10 C1.54989297 8.50271237 0.27435996 7.67534759 -0.8125 5 C-1 3 -1 3 0 0 Z " fill="#4B8B6A" transform="translate(127,75)"/>
<path d="M0 0 C-2.0625 2.5625 -2.0625 2.5625 -5 5 C-8.25 4.8125 -8.25 4.8125 -12 4 C-21.43376537 3.10933622 -30.74448004 5.43773897 -39 10 C-39.66 10 -40.32 10 -41 10 C-41 10.66 -41 11.32 -41 12 C-44.08809695 13.76462683 -45.23312136 14 -49 14 C-49.66 14.66 -50.32 15.32 -51 16 C-50.58682778 11.17965738 -48.61980085 9.09007389 -45 6 C-44.34 6 -43.68 6 -43 6 C-42.67 4.02 -42.34 2.04 -42 0 C-40.125 -0.625 -40.125 -0.625 -38 -1 C-37.34 -0.34 -36.68 0.32 -36 1 C-35.34 0.34 -34.68 -0.32 -34 -1 C-23.2549918 -4.19256134 -9.75704621 -6.71023624 0 0 Z " fill="#4B8B6B" transform="translate(159,44)"/>
<path d="M0 0 C1.3303125 0.7115625 1.3303125 0.7115625 2.6875 1.4375 C5.59552934 2.80921195 7.87594795 3.45182732 11 4 C11.76405986 14.47349744 12.20160344 24.53680693 11 35 C11.66 35.33 12.32 35.66 13 36 C12.34 36 11.68 36 11 36 C11.03029297 36.77746582 11.06058594 37.55493164 11.09179688 38.35595703 C11.85163903 58.71680431 12.1098538 79.0627618 12.125 99.4375 C12.12749756 100.61580383 12.12999512 101.79410767 12.13256836 103.00811768 C12.13850936 106.42080555 12.13694927 109.83340468 12.1328125 113.24609375 C12.13479645 114.2544075 12.1367804 115.26272125 12.13882446 116.30158997 C12.1165183 123.24302826 11.66866859 130.09164786 11 137 C11.66 137.33 12.32 137.66 13 138 C11.73113036 139.12721436 10.45982438 140.25168658 9.1875 141.375 C8.47980469 142.00148437 7.77210938 142.62796875 7.04296875 143.2734375 C5 145 5 145 2 147 C2.1875 145.3125 2.1875 145.3125 3 143 C3.8281572 142.38892899 4.65631439 141.77785797 5.50956726 141.14826965 C9.0282198 137.68909738 8.62133488 133.69613344 8.68556213 129.00100708 C8.67693649 127.78468597 8.66831085 126.56836487 8.65942383 125.31518555 C8.66990753 124.0269841 8.68039124 122.73878265 8.69119263 121.4115448 C8.71931559 117.886983 8.71687186 114.36303026 8.70889878 110.83839011 C8.70577193 107.15208206 8.7308132 103.46596739 8.75285339 99.77973938 C8.79029505 92.80292555 8.80244144 85.82630663 8.8054778 78.84940225 C8.81016852 70.90496633 8.84309219 62.96072568 8.87837565 55.0163759 C8.95030962 38.6775956 8.9868268 22.33893558 9 6 C7.83404297 5.79697266 7.83404297 5.79697266 6.64453125 5.58984375 C3.71448941 4.93631891 2.18960323 4.0274104 0 2 C0 1.34 0 0.68 0 0 Z " fill="#55977A" transform="translate(197,104)"/>
<path d="M0 0 C0.33 0 0.66 0 1 0 C1.32146898 7.40018698 1.58602677 14.8008689 1.81176758 22.20458984 C1.89513008 24.72100433 1.99134332 27.23702816 2.10083008 29.75244141 C2.25630446 33.37635588 2.36494312 36.99917921 2.46484375 40.625 C2.52284653 41.74302002 2.5808493 42.86104004 2.64060974 44.01293945 C2.75007337 49.66202465 2.49398354 53.15124154 -1.28125 57.51953125 C-2.49707298 58.70456452 -3.73437199 59.86831316 -5 61 C-5.71663818 61.75410156 -6.43327637 62.50820312 -7.17163086 63.28515625 C-7.76339111 63.87167969 -8.35515137 64.45820313 -8.96484375 65.0625 C-9.61904297 65.71347656 -10.27324219 66.36445313 -10.94726562 67.03515625 C-11.60404297 67.68355469 -12.26082031 68.33195312 -12.9375 69 C-13.62134766 69.67933594 -14.30519531 70.35867187 -15.00976562 71.05859375 C-16.67087159 72.70808359 -18.33428513 74.3551668 -20 76 C-20.33 75.01 -20.66 74.02 -21 73 C-21.33 72.67 -21.66 72.34 -22 72 C-22.36162029 70.67405895 -22.69728039 69.34061543 -23 68 C-23.78375 68.515625 -24.5675 69.03125 -25.375 69.5625 C-26.24125 70.036875 -27.1075 70.51125 -28 71 C-28.66 70.67 -29.32 70.34 -30 70 C-23.8990701 63.07382354 -17.58695525 56.463192 -11 50 C-10.34 50.66 -9.68 51.32 -9 52 C-10.04874998 54.62187494 -10.64931313 55.79371361 -13.125 57.25 C-13.74375 57.4975 -14.3625 57.745 -15 58 C-15 59.32 -15 60.64 -15 62 C-14.34 62 -13.68 62 -13 62 C-12.67 62.66 -12.34 63.32 -12 64 C-11.278125 63.278125 -10.55625 62.55625 -9.8125 61.8125 C-7.99952114 59.99952114 -6.14716143 58.22469221 -4.25 56.5 C-0.29686636 52.10762929 -0.88665744 47.3107579 -0.9375 41.6015625 C-0.94128662 40.88954681 -0.94507324 40.17753113 -0.94897461 39.44393921 C-0.96512699 36.42365081 -0.992878 33.40350287 -1.02050781 30.38330078 C-1.10550026 20.19986337 -0.83448607 10.15353469 0 0 Z M-20 62 C-21.485 63.98 -21.485 63.98 -23 66 C-22.01 66 -21.02 66 -20 66 C-20 65.34 -20 64.68 -20 64 C-19.34 63.67 -18.68 63.34 -18 63 C-18.66 62.67 -19.32 62.34 -20 62 Z " fill="#529375" transform="translate(246,161)"/>
<path d="M0 0 C4.14488547 1.26598558 7.67576597 2.86568282 11.4375 5 C18.4911047 8.63770809 25.17213821 9.37975958 33 10 C32.67 10.99 32.34 11.98 32 13 C31.01 13 30.02 13 29 13 C29 13.99 29 14.98 29 16 C22.44145218 16.33099213 17.01677459 16.09489579 10.875 13.65625 C8.85915864 12.83482479 8.85915864 12.83482479 6 13 C4.57421875 11.69921875 4.57421875 11.69921875 3 10 C1.62072308 8.91609404 0.22415608 7.85388564 -1.1875 6.8125 C-1.90292969 6.28269531 -2.61835937 5.75289063 -3.35546875 5.20703125 C-3.89816406 4.80871094 -4.44085938 4.41039062 -5 4 C-4.67 3.01 -4.34 2.02 -4 1 C-3.34 1.33 -2.68 1.66 -2 2 C-1.34 1.34 -0.68 0.68 0 0 Z " fill="#4A8A6A" transform="translate(107,272)"/>
<path d="M0 0 C0.33 0 0.66 0 1 0 C1.00808685 1.12451065 1.01617371 2.2490213 1.02450562 3.40760803 C1.10206047 14.01586783 1.18982339 24.62400085 1.28752708 35.23209476 C1.33742836 40.68554717 1.38375902 46.13898078 1.421875 51.5925293 C1.45880561 56.85755057 1.50518681 62.12241225 1.55806351 67.38729668 C1.57656613 69.39385612 1.59168927 71.40044972 1.60334396 73.40706062 C1.62027713 76.22214147 1.64932927 79.03686008 1.68115234 81.85180664 C1.68331253 82.67755692 1.68547272 83.50330719 1.68769836 84.3540802 C1.75808703 89.24261621 2.21227725 93.42074483 4 98 C4.99 98.33 5.98 98.66 7 99 C8.31640625 100.55859375 8.31640625 100.55859375 9.5625 102.4375 C10.96589896 104.53166854 12.20558012 106.20558012 14 108 C12.515 108.495 12.515 108.495 11 109 C9.55210372 107.32141165 8.11715444 105.63165191 6.6875 103.9375 C5.88699219 102.99777344 5.08648437 102.05804688 4.26171875 101.08984375 C-0.40276848 94.71746137 -1.44353089 89.66012158 -1.35644531 81.95947266 C-1.35848969 81.08223541 -1.36053406 80.20499817 -1.36264038 79.30117798 C-1.36563173 76.42192261 -1.34722749 73.5432491 -1.328125 70.6640625 C-1.32506563 68.65864198 -1.32319086 66.65321934 -1.32244873 64.64779663 C-1.31785675 60.45668335 -1.30346781 56.26576339 -1.28125 52.07470703 C-1.25285883 46.69080173 -1.24202637 41.30704779 -1.2375679 35.92307472 C-1.23342256 31.78826371 -1.22361432 27.65348353 -1.21169281 23.5186882 C-1.20598091 21.53226341 -1.20122527 19.54583565 -1.19742584 17.55940628 C-1.19058926 14.79427043 -1.17697229 12.02925721 -1.16113281 9.26416016 C-1.16001495 8.43718628 -1.15889709 7.6102124 -1.15774536 6.75817871 C-1.11469431 1.11469431 -1.11469431 1.11469431 0 0 Z " fill="#5BA181" transform="translate(165,64)"/>
<path d="M0 0 C0.33 1.65 0.66 3.3 1 5 C-3.33085971 6.29925791 -7.51474352 7.343621 -12 8 C-11.67 8.99 -11.34 9.98 -11 11 C-11.99 11.495 -11.99 11.495 -13 12 C-13 11.34 -13 10.68 -13 10 C-16.62793998 11.86566488 -16.62793998 11.86566488 -19 15 C-20.65 15 -22.3 15 -24 15 C-24 14.34 -24 13.68 -24 13 C-24.99 12.67 -25.98 12.34 -27 12 C-22.375 7.125 -22.375 7.125 -19 6 C-19 5.34 -19 4.68 -19 4 C-12.38862651 1.01840019 -7.34829742 -0.14408426 0 0 Z M-28 13 C-27.67 13.99 -27.34 14.98 -27 16 C-28.9375 18.6875 -28.9375 18.6875 -31 21 C-30.37240135 18.07120629 -29.41377341 15.63904371 -28 13 Z " fill="#4A8A6A" transform="translate(124,213)"/>
<path d="M0 0 C-0.556875 0.268125 -1.11375 0.53625 -1.6875 0.8125 C-7.08166098 3.24164023 -7.08166098 3.24164023 -10 8 C-10.66 8 -11.32 8 -12 8 C-12.36886392 14.02477732 -12.18280755 18.66109702 -9 24 C-7.24244181 25.43075599 -5.48308596 26.6247919 -3.5234375 27.76171875 C-1.5179357 29.39183176 -1.46307164 30.48117699 -1 33 C-0.94259633 34.52725907 -0.93964608 36.05711163 -0.97827148 37.58496094 C-1.00841591 38.93590851 -1.00841591 38.93590851 -1.03916931 40.31414795 C-1.07972191 41.75966034 -1.07972191 41.75966034 -1.12109375 43.234375 C-1.14470474 44.22753723 -1.16831573 45.22069946 -1.19264221 46.24395752 C-1.26915068 49.41278838 -1.3532304 52.58136696 -1.4375 55.75 C-1.4907335 57.89972728 -1.54347381 60.04946684 -1.59570312 62.19921875 C-1.72474847 67.46630158 -1.86000885 72.73319735 -2 78 C-2.33 78 -2.66 78 -3 78 C-3.78052377 71.81792768 -4.13749927 65.81666708 -4.09765625 59.58984375 C-4.0962413 58.73693253 -4.09482635 57.8840213 -4.09336853 57.00526428 C-4.08782939 54.31597184 -4.0752888 51.62676672 -4.0625 48.9375 C-4.05747712 47.09961059 -4.0529156 45.26171985 -4.04882812 43.42382812 C-4.03788 38.94918578 -4.02065839 34.47460762 -4 30 C-4.60585937 29.71769531 -5.21171875 29.43539062 -5.8359375 29.14453125 C-9.56154175 27.17413044 -12.1451974 24.35991323 -14.375 20.8125 C-15.65336202 15.05987091 -14.91002834 9.78755568 -12.25 4.5625 C-8.41652503 0.19659795 -5.77529126 -1.81509154 0 0 Z " fill="#5B957B" transform="translate(241,131)"/>
<path d="M0 0 C0.15855469 0.59167969 0.31710938 1.18335938 0.48046875 1.79296875 C2.05800039 7.13565876 3.64923763 10.30185198 8 14 C9 15 10 16 11 17 C11.66 16.67 12.32 16.34 13 16 C13.125 18.875 13.125 18.875 13 22 C12.34 22.66 11.68 23.32 11 24 C11.66 24.33 12.32 24.66 13 25 C8.59852343 24.49697411 6.24604581 22.97554199 3 20 C2.67 19.34 2.34 18.68 2 18 C1.01 17.67 0.02 17.34 -1 17 C-2.16796875 14.85546875 -2.16796875 14.85546875 -3.1875 12.1875 C-3.53167969 11.31480469 -3.87585937 10.44210938 -4.23046875 9.54296875 C-5 7 -5 7 -5 3 C-2.64285714 0 -2.64285714 0 0 0 Z " fill="#4A8A6A" transform="translate(55,220)"/>
<path d="M0 0 C0 3 0 3 -2.125 5.25 C-3.07375 6.1575 -4.0225 7.065 -5 8 C-12.42364226 15.42364226 -16.00861075 24.5078239 -16.3125 35 C-16.13824739 47.92954335 -10.87230262 57.07750244 -2.0625 66.0625 C-1.0415625 67.0215625 -1.0415625 67.0215625 0 68 C-0.99 68.495 -0.99 68.495 -2 69 C-3.46484375 67.76302083 -4.9296875 66.52604167 -6.39453125 65.2890625 C-7.8655046 64.10798901 -9.43037794 63.04641471 -11 62 C-11.72775691 60.35908803 -12.38832791 58.6876254 -13 57 C-13.84076537 55.34728053 -14.69514135 53.70141947 -15.5625 52.0625 C-19.87296783 43.4288865 -20.40040876 33.3681192 -17.9375 24 C-14.37905662 13.72189143 -9.18320855 5.91390301 0 0 Z " fill="#5E987E" transform="translate(60,124)"/>
<path d="M0 0 C1.63701978 3.06490488 2.73697162 6.13768739 3.8125 9.4375 C5.46996974 14.10067979 7.28490724 16.66594239 11 20 C14.82770833 25.10361111 13.88539969 29.55026152 13.27734375 35.5625 C12.46128319 45.67705337 14.19927612 55.22100396 19.19140625 64.125 C20 66 20 66 19 69 C12.40110457 56.75499084 7.58405367 45.15268027 10.9375 31 C11.52054692 27.08413083 10.08693691 25.20315863 7.8125 22.0625 C7.16667969 21.22203125 6.52085938 20.3815625 5.85546875 19.515625 C1.73133476 13.92416754 -0.56738714 7.92180572 -1 1 C-0.67 0.67 -0.34 0.34 0 0 Z " fill="#5A967A" transform="translate(34,168)"/>
<path d="M0 0 C0.66 0.66 1.32 1.32 2 2 C0.35 4.97 -1.3 7.94 -3 11 C-3.66 11 -4.32 11 -5 11 C-5.20882812 11.74765625 -5.41765625 12.4953125 -5.6328125 13.265625 C-7.42302032 16.84604065 -9.39796621 17.82870504 -12.875 19.75 C-13.92429688 20.34296875 -14.97359375 20.9359375 -16.0546875 21.546875 C-23.99668712 25.46520903 -33.11103341 24.90137293 -41.3828125 22.11328125 C-48.5888229 19.04803802 -56.03982384 15.2002202 -61 9 C-61 8.34 -61 7.68 -61 7 C-57.86505663 8.42305295 -55.45067742 10.1741161 -52.8125 12.375 C-46.88723015 17.05284462 -40.62157712 20.36486857 -33 21 C-32.34644531 21.06316406 -31.69289062 21.12632812 -31.01953125 21.19140625 C-23.54555626 21.60148275 -16.32697032 19.93781893 -10.62890625 14.90625 C-7.8386315 11.83438789 -5.46984597 8.82107887 -3.40625 5.21484375 C-2.9421875 4.48394531 -2.478125 3.75304687 -2 3 C-1.34 3 -0.68 3 0 3 C0 2.01 0 1.02 0 0 Z " fill="#5E997E" transform="translate(164,258)"/>
<path d="M0 0 C2.4375 0.375 2.4375 0.375 5 1 C8.47459967 7.94919934 5.20140903 17.10749316 3 24 C2.34 24 1.68 24 1 24 C1 22.68 1 21.36 1 20 C0.67 20.99 0.34 21.98 0 23 C-1.32 23.99 -2.64 24.98 -4 26 C-3.67 20.72 -3.34 15.44 -3 10 C-2.67 10 -2.34 10 -2 10 C-1.67 7.69 -1.34 5.38 -1 3 C-0.34 3 0.32 3 1 3 C0.67 2.01 0.34 1.02 0 0 Z " fill="#4A8A6A" transform="translate(142,91)"/>
<path d="M0 0 C1.65 0 3.3 0 5 0 C4.21654285 1.17219543 3.42297164 2.33763668 2.625 3.5 C2.18414062 4.1496875 1.74328125 4.799375 1.2890625 5.46875 C0.86367187 5.9740625 0.43828125 6.479375 0 7 C-0.66 7 -1.32 7 -2 7 C-2.2165625 7.55558594 -2.433125 8.11117187 -2.65625 8.68359375 C-4.45558975 11.78536257 -6.8029316 13.7096627 -9.5 16.0625 C-12.45371116 18.64699726 -14.8201612 20.7302418 -17 24 C-17.99 24 -18.98 24 -20 24 C-20.68867618 13.24899957 -20.68867618 13.24899957 -18.125 9.375 C-16 7 -16 7 -14 6 C-14.185625 6.763125 -14.37125 7.52625 -14.5625 8.3125 C-15.22819173 11.08967375 -15.22819173 11.08967375 -14 14 C-13.34 13.01 -12.68 12.02 -12 11 C-9.625 9.9375 -9.625 9.9375 -7 9 C-5.65949948 8.34786461 -4.32338632 7.68620031 -3 7 C-3 6.34 -3 5.68 -3 5 C-2.01 4.34 -1.02 3.68 0 3 C0 2.01 0 1.02 0 0 Z " fill="#50936D" transform="translate(212,244)"/>
<path d="M0 0 C1.40521358 2.81042716 0.66299141 4.90708058 -0.0625 7.875 C-4.36572683 9.34439453 -8.68547367 10.64943263 -13.0625 11.875 C-13.3925 10.885 -13.7225 9.895 -14.0625 8.875 C-10.1025 7.885 -6.1425 6.895 -2.0625 5.875 C-2.0625 4.555 -2.0625 3.235 -2.0625 1.875 C-8.73741831 1.41989193 -14.65624557 3.1077574 -21.0625 4.875 C-21.0625 5.535 -21.0625 6.195 -21.0625 6.875 C-21.92875 7.37 -22.795 7.865 -23.6875 8.375 C-29.71287237 12.21581793 -32.91608429 19.21791449 -34.4375 26 C-34.64375 27.27875 -34.85 28.5575 -35.0625 29.875 C-35.7225 29.545 -36.3825 29.215 -37.0625 28.875 C-36.5611481 19.68354856 -32.78264353 12.75282175 -26.09375 6.4453125 C-19.55055733 1.38692124 -8.18318314 -4.46355444 0 0 Z " fill="#619B82" transform="translate(126.0625,212.125)"/>
<path d="M0 0 C5.65410237 0.17444599 5.65410237 0.17444599 8.125 2.25 C9.125 4.625 9.125 4.625 9.125 7.25 C7.75 9.5625 7.75 9.5625 5.125 11.25 C2.02393596 11.80316277 -0.77665493 11.82984152 -3.875 11.25 C-6 9.5625 -6 9.5625 -6.875 7.25 C-6.50443374 2.06207234 -5.37003535 0.34645389 0 0 Z " fill="#5C927B" transform="translate(132.875,241.75)"/>
<path d="M0 0 C2 1 2 1 2.81640625 3.0390625 C5.10767384 10.98052399 6.76206778 17.03874582 4 25 C3.01 25 2.02 25 1 25 C-1.31317531 21.53023704 -1.5802426 18.6515617 -2 14.625 C-2.50374597 10.0642999 -3.06413272 6.17824687 -5 2 C-4.360625 1.855625 -3.72125 1.71125 -3.0625 1.5625 C-1.02454854 1.18992819 -1.02454854 1.18992819 0 0 Z " fill="#49896A" transform="translate(146,183)"/>
<path d="M0 0 C8.70394816 -0.31182369 16.80022564 1.54225149 23.6328125 7.16015625 C28.81540284 12.18726888 28.81540284 12.18726888 30.6328125 15.16015625 C30.32421875 17.41015625 30.32421875 17.41015625 29.6328125 19.16015625 C29.1996875 18.39703125 28.7665625 17.63390625 28.3203125 16.84765625 C26.79528892 14.19729372 26.79528892 14.19729372 24.9453125 12.47265625 C24.5121875 12.03953125 24.0790625 11.60640625 23.6328125 11.16015625 C23.6328125 10.50015625 23.6328125 9.84015625 23.6328125 9.16015625 C22.7459375 8.89203125 21.8590625 8.62390625 20.9453125 8.34765625 C17.6328125 7.16015625 17.6328125 7.16015625 15.32421875 5.640625 C6.0984649 0.56579088 -6.71715399 3.38378412 -16.3671875 6.16015625 C-17.3571875 6.82015625 -18.3471875 7.48015625 -19.3671875 8.16015625 C-20.0271875 7.50015625 -20.6871875 6.84015625 -21.3671875 6.16015625 C-20.3671875 4.16015625 -20.3671875 4.16015625 -18.36328125 3.34375 C-12.18082391 1.54092656 -6.40792536 0.4335395 0 0 Z " fill="#588F74" transform="translate(141.3671875,37.83984375)"/>
<path d="M0 0 C3.96749906 4.65393938 7.55767478 9.5190626 10.6328125 14.80859375 C11.81222696 17.12366922 11.81222696 17.12366922 14 18 C17.83936768 18.1421988 21.32016639 18.17754676 25 17 C24.505 18.485 24.505 18.485 24 20 C20.20789186 21.26403605 16.89724042 21.99580224 13 21 C8.36614688 17.23499434 5.20095997 11.97927106 2 7 C1.34 6.34 0.68 5.68 0 5 C-0.69748583 3.68252676 -1.36959957 2.35085807 -2 1 C-2.99 1 -3.98 1 -5 1 C-5.86625 0.071875 -5.86625 0.071875 -6.75 -0.875 C-12.51116373 -6.31609908 -21.52968019 -5.57312458 -29 -6 C-29 -6.33 -29 -6.66 -29 -7 C-17.6769503 -8.56617884 -8.8042771 -7.91174729 0 0 Z " fill="#5E987C" transform="translate(100,118)"/>
<path d="M0 0 C1.98 0 3.96 0 6 0 C6.18451025 9.41002278 6.18451025 9.41002278 5 14 C4.67 14 4.34 14 4 14 C4 11.03 4 8.06 4 5 C3.99742188 5.75925781 3.99484375 6.51851562 3.9921875 7.30078125 C3.87507898 10.31047018 3.68828829 13.06503485 3 16 C-0.0625 18.1875 -0.0625 18.1875 -3 19 C-3.22134176 16.87631556 -3.42670007 14.75095976 -3.625 12.625 C-3.74101563 11.44164062 -3.85703125 10.25828125 -3.9765625 9.0390625 C-3.98429687 8.03617188 -3.99203125 7.03328125 -4 6 C-3.34 5.34 -2.68 4.68 -2 4 C-1.34 4.33 -0.68 4.66 0 5 C0 3.35 0 1.7 0 0 Z " fill="#498769" transform="translate(50,199)"/>
<path d="M0 0 C7.04433877 0.5635471 10.83794873 2.73738821 15.6875 7.8125 C21.26498399 15.50038334 21.68524518 21.61562531 21 31 C20.22530377 35.82033209 18.6099885 40.40003286 17 45 C16.67 45 16.34 45 16 45 C16.85299456 35.65335753 16.85299456 35.65335753 17.5625 32.5 C18.88454964 24.94543064 18.42050221 16.96768969 15 10 C14.01 9.67 13.02 9.34 12 9 C12 8.34 12 7.68 12 7 C11.34 7 10.68 7 10 7 C9.67 6.34 9.34 5.68 9 5 C6.88984046 3.87293294 6.88984046 3.87293294 4.4375 2.875 C3.61121094 2.52179688 2.78492188 2.16859375 1.93359375 1.8046875 C1.29550781 1.53914063 0.65742188 1.27359375 0 1 C0 0.67 0 0.34 0 0 Z " fill="#589278" transform="translate(129,74)"/>
<path d="M0 0 C1.051875 0.00644531 2.10375 0.01289063 3.1875 0.01953125 C6 0.1875 6 0.1875 9 1.1875 C8.67 2.1775 8.34 3.1675 8 4.1875 C5.9375 4.875 5.9375 4.875 4 5.1875 C5.32 5.5175 6.64 5.8475 8 6.1875 C7.67 6.8475 7.34 7.5075 7 8.1875 C5.68428397 7.9327486 4.37239624 7.65815859 3.0625 7.375 C2.33160156 7.22417969 1.60070312 7.07335937 0.84765625 6.91796875 C0.23792969 6.67691406 -0.37179688 6.43585938 -1 6.1875 C-1.33 5.1975 -1.66 4.2075 -2 3.1875 C-2 4.1775 -2 5.1675 -2 6.1875 C-3.7902061 6.85807887 -5.58221489 7.5238469 -7.375 8.1875 C-8.37273437 8.55875 -9.37046875 8.93 -10.3984375 9.3125 C-13 10.1875 -13 10.1875 -15 10.1875 C-14.34 8.5375 -13.68 6.8875 -13 5.1875 C-12.34 5.1875 -11.68 5.1875 -11 5.1875 C-11 5.8475 -11 6.5075 -11 7.1875 C-10.34 7.1875 -9.68 7.1875 -9 7.1875 C-9.0928125 6.011875 -9.0928125 6.011875 -9.1875 4.8125 C-9.125625 3.94625 -9.06375 3.08 -9 2.1875 C-5.52207183 -0.13111878 -4.09700748 -0.05522927 0 0 Z " fill="#48896A" transform="translate(126,170.8125)"/>
<path d="M0 0 C-1 3 -1 3 -3.35546875 4.796875 C-6.42953259 7.35783808 -7.6273964 9.64466208 -9.3125 13.25 C-9.82425781 14.32765625 -10.33601563 15.4053125 -10.86328125 16.515625 C-11.23839844 17.33546875 -11.61351563 18.1553125 -12 19 C-12.33 19 -12.66 19 -13 19 C-13 17.35 -13 15.7 -13 14 C-13.33 14.33 -13.66 14.66 -14 15 C-14.66 15 -15.32 15 -16 15 C-16.33 14.34 -16.66 13.68 -17 13 C-17.66 13 -18.32 13 -19 13 C-18.01348113 10.04044339 -16.84281098 8.45708131 -15 6 C-14.67 5.01 -14.34 4.02 -14 3 C-13.01 3 -12.02 3 -11 3 C-11 3.66 -11 4.32 -11 5 C-9.35 5 -7.7 5 -6 5 C-5.67 4.01 -5.34 3.02 -5 2 C-2 0 -2 0 0 0 Z " fill="#4D8D6C" transform="translate(111,223)"/>
<path d="M0 0 C0 0.99 0 1.98 0 3 C-0.45375 3.4125 -0.9075 3.825 -1.375 4.25 C-3.31647972 6.06499435 -3.31647972 6.06499435 -3.9375 9.5625 C-4.288125 10.696875 -4.63875 11.83125 -5 13 C-5.62648438 13.28101563 -6.25296875 13.56203125 -6.8984375 13.8515625 C-9.95838724 15.52372834 -10.43725828 17.61393207 -11.6875 20.8125 C-12.31205078 22.36904297 -12.31205078 22.36904297 -12.94921875 23.95703125 C-14.82821853 29.39844698 -15.25157709 34.60884857 -15.5625 40.3125 C-15.60568359 41.05306641 -15.64886719 41.79363281 -15.69335938 42.55664062 C-15.79870432 44.37091464 -15.89978316 46.1854355 -16 48 C-16.66 48 -17.32 48 -18 48 C-18.43801787 31.33098664 -16.68188154 18.16131503 -5.1875 5.3125 C-3.47875934 3.51789297 -1.75183651 1.75183651 0 0 Z " fill="#5A997A" transform="translate(50,119)"/>
<path d="M0 0 C0 0.66 0 1.32 0 2 C-2.08203125 3.40234375 -2.08203125 3.40234375 -4.8125 4.9375 C-7.9662451 6.71688576 -10.55214921 8.32764218 -13 11 C-13.763125 11.70125 -14.52625 12.4025 -15.3125 13.125 C-20.85250727 19.0515194 -24.48431138 25.31317366 -27 33 C-27.66 32.67 -28.32 32.34 -29 32 C-27.14277925 25.10873352 -24.25998406 19.70775371 -20 14 C-19.4121875 13.18660156 -18.824375 12.37320313 -18.21875 11.53515625 C-15.61182062 8.55646406 -12.69267101 6.38812742 -9.4375 4.1875 C-8.86064453 3.78080078 -8.28378906 3.37410156 -7.68945312 2.95507812 C-3.38348214 0 -3.38348214 0 0 0 Z " fill="#5D957C" transform="translate(86,65)"/>
<path d="M0 0 C0.495 1.485 0.495 1.485 1 3 C-4.98225129 12.65468888 -12.98675958 19.9689785 -24 23 C-27.66560335 23.5521605 -31.29688704 23.85919723 -35 24 C-35 23.34 -35 22.68 -35 22 C-33.83984375 21.85304688 -33.83984375 21.85304688 -32.65625 21.703125 C-19.9087659 19.87304065 -11.51960831 14.99271892 -3.25390625 4.859375 C-2.11749343 3.27547951 -1.04884613 1.64319227 0 0 Z " fill="#619B80" transform="translate(170,267)"/>
<path d="M0 0 C1.98 0 3.96 0 6 0 C6.59732819 2.76264289 7 5.16032769 7 8 C6.34 8 5.68 8 5 8 C5.99 8.99 6.98 9.98 8 11 C8 10.34 8 9.68 8 9 C11 10.5 11 10.5 14 12 C13.6875 13.9375 13.6875 13.9375 13 16 C12.01 16.33 11.02 16.66 10 17 C9.7525 16.360625 9.505 15.72125 9.25 15.0625 C8.8375 14.381875 8.425 13.70125 8 13 C7.360625 12.87109375 6.72125 12.7421875 6.0625 12.609375 C4 12 4 12 2.734375 10.29296875 C2.40953125 9.59816406 2.0846875 8.90335938 1.75 8.1875 C1.41484375 7.50042969 1.0796875 6.81335938 0.734375 6.10546875 C0 4 0 4 0 0 Z " fill="#488A69" transform="translate(77,161)"/>
<path d="M0 0 C2 2 2 2 3.3125 5.4375 C5.16766808 9.35396595 6.01288395 10.45952334 10 12 C14.23121576 12.52890197 16.24162081 12.47810862 19.875 10.1875 C22.20650404 8.10416336 22.20650404 8.10416336 23 5 C23.66 5 24.32 5 25 5 C25.33 4.34 25.66 3.68 26 3 C26.3125 6.3125 26.3125 6.3125 26 10 C23.6875 11.8125 23.6875 11.8125 21 13 C20.01 13.66 19.02 14.32 18 15 C14.0675833 15.78648334 10.83092668 16.37913361 7 15 C7 14.34 7 13.68 7 13 C6.401875 12.773125 5.80375 12.54625 5.1875 12.3125 C2.31988887 10.59193332 1.37940051 9.03468112 0 6 C-0.1875 2.6875 -0.1875 2.6875 0 0 Z " fill="#5D967C" transform="translate(197,87)"/>
<path d="M0 0 C2.375 0.25 2.375 0.25 5 1 C5.70151152 2.3153341 6.36525925 3.65117592 7 5 C7.86625 5.474375 8.7325 5.94875 9.625 6.4375 C10.800625 7.2109375 10.800625 7.2109375 12 8 C12.3125 10.6875 12.3125 10.6875 12 13 C10.1875 13.625 10.1875 13.625 8 14 C7.01 13.34 6.02 12.68 5 12 C5 11.34 5 10.68 5 10 C4.360625 9.71125 3.72125 9.4225 3.0625 9.125 C1 8 1 8 0 6 C0.66 5.34 1.32 4.68 2 4 C1.01 4 0.02 4 -1 4 C-0.67 2.68 -0.34 1.36 0 0 Z " fill="#4A8969" transform="translate(107,87)"/>
<path d="M0 0 C2.1875 0.00390625 2.1875 0.00390625 4.3125 0.625 C6.20131374 2.75428772 7.51387012 4.9617442 8.92578125 7.4296875 C10.61759747 10.10799938 12.51008622 11.22379311 15.3125 12.625 C15.3125 13.285 15.3125 13.945 15.3125 14.625 C11.87322421 13.3830393 9.06042181 12.06759716 6.3125 9.625 C6.3125 8.965 6.3125 8.305 6.3125 7.625 C5.3225 7.295 4.3325 6.965 3.3125 6.625 C3.3125 5.305 3.3125 3.985 3.3125 2.625 C1.3325 2.625 -0.6475 2.625 -2.6875 2.625 C-1.0645361 6.97749409 0.56400329 11.3210081 2.3125 15.625 C-0.74311782 14.57133868 -1.66974736 13.65289701 -3.4375 10.875 C-4.73602771 7.49882794 -5.02053173 5.20509109 -4.6875 1.625 C-3.6875 0.625 -3.6875 0.625 0 0 Z " fill="#5E947D" transform="translate(79.6875,158.375)"/>
<path d="M0 0 C1.85625 0.6496875 1.85625 0.6496875 3.75 1.3125 C10.20736526 3.46834478 16.81628781 5.10773911 23.47265625 6.52734375 C28.79783841 7.69675762 28.79783841 7.69675762 31 11 C30.625 13.6875 30.625 13.6875 30 16 C29.34 15.67 28.68 15.34 28 15 C28 13.68 28 12.36 28 11 C22.03990779 9.48076081 16.05748446 8.1048828 10.05078125 6.78125 C7.2350907 6.06020248 4.66608886 5.14755587 2 4 C2 3.34 2 2.68 2 2 C1.34 2 0.68 2 0 2 C0 1.34 0 0.68 0 0 Z " fill="#5A937A" transform="translate(60,192)"/>
<path d="M0 0 C-0.556875 0.268125 -1.11375 0.53625 -1.6875 0.8125 C-7.08166098 3.24164023 -7.08166098 3.24164023 -10 8 C-10.66 8 -11.32 8 -12 8 C-12.37186022 14.07371696 -12.04351492 18.5426629 -9 24 C-6.45911321 26.87685203 -6.45911321 26.87685203 -4 29 C-7 29 -7 29 -9.5 26.875 C-13.47105819 22.30828308 -15.31214721 19.09487041 -14.9375 13 C-14.13780699 7.28176506 -12.12098258 3.68590923 -7.5625 0.0625 C-4.5486697 -1.18713695 -3.06886214 -0.96449953 0 0 Z " fill="#649E85" transform="translate(241,131)"/>
<path d="M0 0 C1.93229621 1.95133361 2.80181389 3.48951482 4 6 C3.34 6.33 2.68 6.66 2 7 C1.525625 6.236875 1.05125 5.47375 0.5625 4.6875 C-2.9647966 0.98814015 -5.97339284 -0.2202493 -11 -1 C-19.7031763 -1.1523532 -27.84277949 -0.05176015 -36 3 C-35.67 2.01 -35.34 1.02 -35 0 C-23.98820008 -5.42476038 -10.83542935 -5.8236021 0 0 Z " fill="#639F84" transform="translate(158,51)"/>
<path d="M0 0 C2.9234187 2.21231685 3.86777984 3.30951693 4.5625 6.9375 C3.78858026 11.15106301 2.48073393 12.53448014 -1 15 C-3.80757007 15.40997788 -6.13993414 15.24237846 -9 15 C-9.33 14.01 -9.66 13.02 -10 12 C-8 11 -8 11 -5 11.5625 C-4.01 11.706875 -3.02 11.85125 -2 12 C0.28930236 10.11861241 0.28930236 10.11861241 0.375 7.0625 C0.27238837 3.98851824 0.27238837 3.98851824 -1.5625 2.0625 C-4.96660729 0.57865836 -7.43461808 1.24578459 -11 2 C-10.34 1.67 -9.68 1.34 -9 1 C-9 0.34 -9 -0.32 -9 -1 C-5.36254754 -2.34720462 -3.39627428 -1.78304399 0 0 Z " fill="#5C9179" transform="translate(247,139)"/>
<path d="M0 0 C0.66 0.33 1.32 0.66 2 1 C1.77662203 10.58494583 -0.94518089 19.01590099 -4 28 C-4.66 28 -5.32 28 -6 28 C-5.67 28.99 -5.34 29.98 -5 31 C-5.61875 31.144375 -6.2375 31.28875 -6.875 31.4375 C-9.03258322 31.93152225 -9.03258322 31.93152225 -11 33 C-9.80534564 30.51113676 -8.51144959 28.20770296 -7.05859375 25.8515625 C-4.86030376 22.01430187 -3.78014346 18.22861087 -2.8125 13.9375 C-2.64814453 13.25623047 -2.48378906 12.57496094 -2.31445312 11.87304688 C-1.38056948 7.93712432 -0.61734146 3.99713007 0 0 Z " fill="#609B80" transform="translate(138,102)"/>
<path d="M0 0 C0.495 1.485 0.495 1.485 1 3 C-4 1 -4 1 -6.21484375 -0.0546875 C-9.70998332 -1.2409761 -12.68822051 -1.26495651 -16.375 -1.25 C-17.64085938 -1.25515625 -18.90671875 -1.2603125 -20.2109375 -1.265625 C-24.06966647 -0.99511617 -27.30834562 -0.1101395 -31 1 C-32.32 1 -33.64 1 -35 1 C-35 0.34 -35 -0.32 -35 -1 C-23.26148132 -4.1807599 -10.98372722 -6.88497786 0 0 Z " fill="#649D83" transform="translate(141,173)"/>
<path d="M0 0 C7.26153846 -0.61538462 7.26153846 -0.61538462 11 2.5 C11.66 3.325 12.32 4.15 13 5 C8.8803623 6.29243536 5.33168317 7.26252625 1 7 C-0.0625 4.625 -0.0625 4.625 -1 2 C-0.67 1.34 -0.34 0.68 0 0 Z " fill="#4A8969" transform="translate(129,244)"/>
<path d="M0 0 C2.0625 1.125 2.0625 1.125 3 3 C2.6875 6.1875 2.6875 6.1875 2 9 C-2.30322683 10.46939453 -6.62297367 11.77443263 -11 13 C-11.33 12.01 -11.66 11.02 -12 10 C-8.04 9.01 -4.08 8.02 0 7 C0 5.68 0 4.36 0 3 C-0.93972656 3.03480469 -0.93972656 3.03480469 -1.8984375 3.0703125 C-3.12433594 3.09738281 -3.12433594 3.09738281 -4.375 3.125 C-5.18710938 3.14820313 -5.99921875 3.17140625 -6.8359375 3.1953125 C-9 3 -9 3 -11 1 C-7.23802058 -0.25399314 -3.93441902 -0.44170193 0 0 Z " fill="#589379" transform="translate(124,211)"/>
<path d="M0 0 C0.66 0 1.32 0 2 0 C2.33 1.98 2.66 3.96 3 6 C3.59425781 6.08636719 4.18851563 6.17273438 4.80078125 6.26171875 C7.61309635 7.20581742 8.46548449 8.42646823 10.1875 10.8125 C10.69667969 11.49957031 11.20585937 12.18664062 11.73046875 12.89453125 C14.47940353 17.45353385 14.08626674 21.82399534 14 27 C13.34 26.67 12.68 26.34 12 26 C11.40234375 23.6015625 11.40234375 23.6015625 10.9375 20.625 C10.45544672 17.60519514 9.96882638 14.90647913 9 12 C7.3523962 11.28752268 5.68236471 10.62599617 4 10 C1.54989297 8.50271237 0.27435996 7.67534759 -0.8125 5 C-1 3 -1 3 0 0 Z " fill="#5D967A" transform="translate(127,75)"/>
<path d="M0 0 C8.58 0.99 17.16 1.98 26 3 C26 3.66 26 4.32 26 5 C18.29473736 8.85263132 7.68835632 4.26902743 0 2 C0 1.34 0 0.68 0 0 Z " fill="#539078" transform="translate(63,204)"/>
<path d="M0 0 C0.66 0.33 1.32 0.66 2 1 C0.68 1.33 -0.64 1.66 -2 2 C-2 2.66 -2 3.32 -2 4 C-6.72345523 5.8598605 -10.97759342 6.30664368 -16 6.25 C-17.02867188 6.26160156 -17.02867188 6.26160156 -18.078125 6.2734375 C-22.42530835 6.2568452 -25.96113993 5.59030115 -30 4 C-30 3.34 -30 2.68 -30 2 C-28.99839844 2.15984375 -27.99679688 2.3196875 -26.96484375 2.484375 C-17.49447782 3.71598909 -8.77451478 3.95713412 0 0 Z " fill="#5E9C82" transform="translate(119,178)"/>
<path d="M0 0 C0.66 0.33 1.32 0.66 2 1 C1.67 1.99 1.34 2.98 1 4 C0.34 4.28875 -0.32 4.5775 -1 4.875 C-3.29150599 5.8553382 -3.29150599 5.8553382 -3.75 8.625 C-3.8325 9.40875 -3.915 10.1925 -4 11 C-4.66 11 -5.32 11 -6 11 C-6 11.66 -6 12.32 -6 13 C-5.01 13.33 -4.02 13.66 -3 14 C-3.99 14.33 -4.98 14.66 -6 15 C-6.33 17.64 -6.66 20.28 -7 23 C-7.66 23 -8.32 23 -9 23 C-9.47702379 15.79164051 -9.40250224 9.97783851 -5 4 C-2.25 1.5 -2.25 1.5 0 0 Z " fill="#559075" transform="translate(198,71)"/>
<path d="M0 0 C1.32 0.33 2.64 0.66 4 1 C4 1.66 4 2.32 4 3 C4.515625 3.226875 5.03125 3.45375 5.5625 3.6875 C8 5 8 5 11 7.375 C15.7803997 10.90015252 21.36327246 12.34322786 27 14 C27 14.66 27 15.32 27 16 C16.76638615 15.53483573 8.1726719 9.94035112 1.328125 2.63671875 C0 1 0 1 0 0 Z " fill="#5E977C" transform="translate(54,237)"/>
<path d="M0 0 C0.66 0.66 1.32 1.32 2 2 C0.50554575 5.93992484 -1.46558048 6.87934829 -5 9 C-7.43561293 11.23496747 -9.71057547 13.61670385 -12 16 C-12.9767157 16.98161152 -13.95555557 17.961119 -14.9375 18.9375 C-15.9584375 19.9584375 -15.9584375 19.9584375 -17 21 C-17.66 20.67 -18.32 20.34 -19 20 C-12.8990701 13.07382354 -6.58695525 6.463192 0 0 Z " fill="#589478" transform="translate(235,211)"/>
<path d="M0 0 C2 2 2 2 2.22705078 4.43017578 C2.21657715 5.4251709 2.20610352 6.42016602 2.1953125 7.4453125 C2.18886719 8.52167969 2.18242187 9.59804687 2.17578125 10.70703125 C2.15902344 11.83496094 2.14226562 12.96289062 2.125 14.125 C2.11597656 15.26066406 2.10695312 16.39632812 2.09765625 17.56640625 C2.07403098 20.37781299 2.04109013 23.18880298 2 26 C1.01 26.33 0.02 26.66 -1 27 C-1.10234659 17.93664124 -1.06996173 9.01824887 0 0 Z " fill="#558E74" transform="translate(215,203)"/>
<path d="M0 0 C3.80509903 1.4317755 6.5129094 3.36069359 9 6.625 C9.33 7.40875 9.66 8.1925 10 9 C9.67 9.66 9.34 10.32 9 11 C7.30146995 9.30146995 5.61059409 7.59879391 3.9375 5.875 C1.56373759 3.57781057 0.54119809 3.06149978 -2.75 2.6875 C-6.77054653 3.07409101 -8.82675517 4.58228965 -12 7 C-12.66 6.67 -13.32 6.34 -14 6 C-9.1080367 0.97930082 -7.15316233 -0.58632478 0 0 Z " fill="#5D987F" transform="translate(213,76)"/>
<path d="M0 0 C2.46797484 0.95892683 3.73410014 1.46375007 4.93359375 3.8828125 C6.24107277 9.70058736 6.07091525 13.79870812 3 19 C0.36245072 22.09912041 -1.14007635 23.71335878 -5 25 C-4 22 -4 22 -1.5625 19.75 C1.48333386 16.48130025 2.31748664 14.3984194 3 10 C2.28485606 6.28704716 2.28485606 6.28704716 1 3 C0.67 2.01 0.34 1.02 0 0 Z " fill="#639B82" transform="translate(254,136)"/>
<path d="M0 0 C0.33 0.99 0.66 1.98 1 3 C0.525625 3.763125 0.05125 4.52625 -0.4375 5.3125 C-2.26992936 8.46427849 -2.25005831 10.41583089 -2 14 C0.97 11.525 0.97 11.525 4 9 C4.33 9.66 4.66 10.32 5 11 C4.21625 11.598125 3.4325 12.19625 2.625 12.8125 C-0.14574323 14.91085249 -0.14574323 14.91085249 -2 18 C-2.99 18 -3.98 18 -5 18 C-5.44571269 11.04192963 -5.68605882 6.39606774 -1 1 C-0.67 0.67 -0.34 0.34 0 0 Z " fill="#5C997A" transform="translate(197,250)"/>
<path d="M0 0 C-1 3 -1 3 -3.35546875 4.796875 C-6.42953259 7.35783808 -7.6273964 9.64466208 -9.3125 13.25 C-9.82425781 14.32765625 -10.33601563 15.4053125 -10.86328125 16.515625 C-11.23839844 17.33546875 -11.61351563 18.1553125 -12 19 C-12.33 19 -12.66 19 -13 19 C-13.25 12.375 -13.25 12.375 -11 9 C-10.34 9 -9.68 9 -9 9 C-9 8.01 -9 7.02 -9 6 C-9.66 5.67 -10.32 5.34 -11 5 C-9.35 5 -7.7 5 -6 5 C-5.67 4.01 -5.34 3.02 -5 2 C-2 0 -2 0 0 0 Z " fill="#599378" transform="translate(111,223)"/>
<path d="M0 0 C0.66 0.66 1.32 1.32 2 2 C-0.12770867 4.36412074 -1.62297095 5.85636989 -4.625 7 C-7.15796053 7.79612938 -7.15796053 7.79612938 -8.3125 10.125 C-8.539375 10.74375 -8.76625 11.3625 -9 12 C-9.66 12 -10.32 12 -11 12 C-11.12375 12.804375 -11.2475 13.60875 -11.375 14.4375 C-11.58125 15.283125 -11.7875 16.12875 -12 17 C-12.66 17.33 -13.32 17.66 -14 18 C-12.92083657 9.92729692 -6.12929386 4.78383911 0 0 Z " fill="#5D977E" transform="translate(116,45)"/>
<path d="M0 0 C0.33 0.66 0.66 1.32 1 2 C1.66 2 2.32 2 3 2 C3.47179688 2.90492188 3.47179688 2.90492188 3.953125 3.828125 C6.23718937 8.09354641 8.26111977 11.81502796 12 15 C11.67 15.99 11.34 16.98 11 18 C10.2575 17.236875 9.515 16.47375 8.75 15.6875 C6.21089545 13.04047915 6.21089545 13.04047915 3.75 11.5 C1.39834016 9.48429157 1.3606957 8.02984392 1 5 C0.814375 4.071875 0.62875 3.14375 0.4375 2.1875 C0.293125 1.465625 0.14875 0.74375 0 0 Z " fill="#5D937B" transform="translate(55,220)"/>
<path d="M0 0 C0.66 0.33 1.32 0.66 2 1 C1.67 1.99 1.34 2.98 1 4 C4.3 4.66 7.6 5.32 11 6 C11 6.66 11 7.32 11 8 C5.06 8 -0.88 8 -7 8 C-5.35 6.68 -3.7 5.36 -2 4 C-0.68834743 1.88339573 -0.68834743 1.88339573 0 0 Z " fill="#559076" transform="translate(124,173)"/>
<path d="M0 0 C0 0.99 0 1.98 0 3 C-1.6570391 4.11596511 -3.31588071 5.22936047 -4.984375 6.328125 C-8.2280207 9.01859081 -10.26882651 12.46028869 -12.51953125 15.98828125 C-13.25236328 16.98408203 -13.25236328 16.98408203 -14 18 C-14.66 18 -15.32 18 -16 18 C-15.34938905 16.32700041 -14.67966676 14.66140763 -14 13 C-13.74992187 12.36964844 -13.49984375 11.73929688 -13.2421875 11.08984375 C-11.59599015 8.3202979 -9.54008406 6.78032675 -7 4.8125 C-6.113125 4.11769531 -5.22625 3.42289062 -4.3125 2.70703125 C-2 1 -2 1 0 0 Z " fill="#5D987B" transform="translate(85,75)"/>
<path d="M0 0 C0 0.33 0 0.66 0 1 C-1.98 1 -3.96 1 -6 1 C-6 1.66 -6 2.32 -6 3 C-6.93972656 3.30744141 -6.93972656 3.30744141 -7.8984375 3.62109375 C-8.71570313 3.89050781 -9.53296875 4.15992188 -10.375 4.4375 C-11.18710938 4.70433594 -11.99921875 4.97117187 -12.8359375 5.24609375 C-15.01031799 5.95179729 -15.01031799 5.95179729 -17 7 C-17.66 6.34 -18.32 5.68 -19 5 C-18 3 -18 3 -15.99609375 2.1484375 C-10.44470679 0.47030831 -5.79613286 -0.32200738 0 0 Z " fill="#559174" transform="translate(139,39)"/>
<path d="M0 0 C0.66 0.33 1.32 0.66 2 1 C0.46985005 6.84239073 -2.04142806 10.93796501 -7.0625 14.4375 C-9.40958661 15.11891224 -10.68679631 14.65885427 -13 14 C-12.20335937 13.56300781 -12.20335937 13.56300781 -11.390625 13.1171875 C-5.63164401 9.77529707 -2.16680454 6.50041362 0 0 Z " fill="#619A80" transform="translate(229,94)"/>
<path d="M0 0 C2.9707191 1.38234804 5.46949026 3.00153392 8.0625 5 C10.34345464 6.75121278 12.60386777 8.40257851 15 10 C15 10.66 15 11.32 15 12 C8.68196628 10.70399308 4.30628414 6.59336975 0 2 C0 1.34 0 0.68 0 0 Z " fill="#5E967D" transform="translate(98,273)"/>
<path d="M0 0 C1.258125 0.12375 2.51625 0.2475 3.8125 0.375 C4.87404297 0.47941406 4.87404297 0.47941406 5.95703125 0.5859375 C8 1 8 1 11 3 C4.565 4.98 4.565 4.98 -2 7 C-1.34 5.35 -0.68 3.7 0 2 C0 1.34 0 0.68 0 0 Z " fill="#579775" transform="translate(64,118)"/>
<path d="M0 0 C0.33 0 0.66 0 1 0 C1.94272668 6.93031506 2.15110267 12.32026012 0 19 C-0.37125 20.155 -0.7425 21.31 -1.125 22.5 C-1.558125 23.7375 -1.558125 23.7375 -2 25 C-2.33 25 -2.66 25 -3 25 C-2.25166929 16.63051177 -1.14302815 8.3230205 0 0 Z " fill="#5D9C7E" transform="translate(148,94)"/>
<path d="M0 0 C1.65 0 3.3 0 5 0 C5 0.66 5 1.32 5 2 C10.94 2.99 10.94 2.99 17 4 C17 4.66 17 5.32 17 6 C10.44074057 5.61020794 5.05473373 4.57886807 -1 2 C-0.67 1.34 -0.34 0.68 0 0 Z " fill="#5E9A7F" transform="translate(114,284)"/>
<path d="M0 0 C2.19284102 2.19284102 2.56973879 3.39544959 3.4375 6.3125 C4.56620094 9.89439787 5.97640724 12.82006852 8 16 C8 16.66 8 17.32 8 18 C5.32944569 16.99012652 4.19330899 16.33172777 2.734375 13.828125 C0.92332721 9.0849046 -0.5444976 5.17272716 0 0 Z " fill="#619C82" transform="translate(90,254)"/>
<path d="M0 0 C0.66 0.33 1.32 0.66 2 1 C1.16855469 1.99580078 1.16855469 1.99580078 0.3203125 3.01171875 C-0.76636719 4.33623047 -0.76636719 4.33623047 -1.875 5.6875 C-2.95394531 6.99267578 -2.95394531 6.99267578 -4.0546875 8.32421875 C-5.88932376 10.8477646 -6.99467229 13.06338486 -8 16 C-8.66 15.01 -9.32 14.02 -10 13 C-3.84965831 3.40546697 -3.84965831 3.40546697 0 0 Z " fill="#609A7E" transform="translate(175,212)"/>
<path d="M0 0 C0.99 0.495 0.99 0.495 2 1 C2 1.66 2 2.32 2 3 C2.99 3.33 3.98 3.66 5 4 C6.31640625 5.55859375 6.31640625 5.55859375 7.5625 7.4375 C8.96589896 9.53166854 10.20558012 11.20558012 12 13 C11.01 13.33 10.02 13.66 9 14 C7.4911599 12.23669281 5.9931702 10.46409603 4.5 8.6875 C3.6646875 7.70136719 2.829375 6.71523437 1.96875 5.69921875 C0 3 0 3 0 0 Z " fill="#59937B" transform="translate(167,159)"/>
<path d="M0 0 C1.65 0 3.3 0 5 0 C4.21654285 1.17219543 3.42297164 2.33763668 2.625 3.5 C2.18414062 4.1496875 1.74328125 4.799375 1.2890625 5.46875 C0.86367187 5.9740625 0.43828125 6.479375 0 7 C-0.66 7 -1.32 7 -2 7 C-2.66 8.32 -3.32 9.64 -4 11 C-4.99 11 -5.98 11 -7 11 C-6.34 9.68 -5.68 8.36 -5 7 C-4.34 7 -3.68 7 -3 7 C-3 6.34 -3 5.68 -3 5 C-2.01 4.34 -1.02 3.68 0 3 C0 2.01 0 1.02 0 0 Z " fill="#5E977E" transform="translate(212,244)"/>
<path d="M0 0 C0.33 0 0.66 0 1 0 C1.28875 1.2375 1.5775 2.475 1.875 3.75 C2.61334794 6.72448742 3.44474933 9.333856 5 12 C4.01 11.67 3.02 11.34 2 11 C1.67 11 1.34 11 1 11 C0.34 11 -0.32 11 -1 11 C-1 10.34 -1 9.68 -1 9 C-2.65 9 -4.3 9 -6 9 C-6.33 8.34 -6.66 7.68 -7 7 C-5.35 6.67 -3.7 6.34 -2 6 C-1.34 4.02 -0.68 2.04 0 0 Z " fill="#488768" transform="translate(196,87)"/>
<path d="M0 0 C3.3 0 6.6 0 10 0 C10 0.66 10 1.32 10 2 C11.32 2.33 12.64 2.66 14 3 C7.4 3 0.8 3 -6 3 C-6 2.67 -6 2.34 -6 2 C-4.02 2 -2.04 2 0 2 C0 1.34 0 0.68 0 0 Z " fill="#5D9B7F" transform="translate(139,38)"/>
<path d="M0 0 C0.33 0 0.66 0 1 0 C2.70159453 13.81776765 2.70159453 13.81776765 -1 19 C-1.66 18.01 -2.32 17.02 -3 16 C-2.34 15.01 -1.68 14.02 -1 13 C-1.33 12.34 -1.66 11.68 -2 11 C-1.34 11 -0.68 11 0 11 C0 7.37 0 3.74 0 0 Z " fill="#569375" transform="translate(173,250)"/>
<path d="M0 0 C1.8125 1.5 1.8125 1.5 3 3 C3 3.66 3 4.32 3 5 C2.1646875 4.566875 2.1646875 4.566875 1.3125 4.125 C0.549375 3.75375 -0.21375 3.3825 -1 3 C-1.804375 2.608125 -2.60875 2.21625 -3.4375 1.8125 C-6.38988863 0.87637678 -8.05809572 1.15945592 -11 2 C-10.34 1.67 -9.68 1.34 -9 1 C-9 0.34 -9 -0.32 -9 -1 C-5.37197314 -2.34371365 -3.3987849 -1.74296662 0 0 Z " fill="#5E987E" transform="translate(247,139)"/>
<path d="M0 0 C0 0.66 0 1.32 0 2 C-1.56116819 2.33951619 -3.12401338 2.67132544 -4.6875 3 C-5.99267578 3.2784375 -5.99267578 3.2784375 -7.32421875 3.5625 C-9.93712964 3.98972047 -12.35813038 4.07616201 -15 4 C-15 3.34 -15 2.68 -15 2 C-13.06302033 1.66365624 -11.12539514 1.33102835 -9.1875 1 C-7.56908203 0.7215625 -7.56908203 0.7215625 -5.91796875 0.4375 C-3 0 -3 0 0 0 Z " fill="#5EA58C" transform="translate(150,287)"/>
<path d="M0 0 C0.33 0 0.66 0 1 0 C1.36306212 3.29683832 1.22285318 4.67401245 -0.6796875 7.45703125 C-1.40414062 8.23433594 -2.12859375 9.01164063 -2.875 9.8125 C-3.59429687 10.60269531 -4.31359375 11.39289063 -5.0546875 12.20703125 C-7 14 -7 14 -9 14 C-7.31268143 10.29115966 -5.0622868 7.6722904 -2.33984375 4.68359375 C-0.78521084 2.92781556 -0.78521084 2.92781556 0 0 Z " fill="#5E987E" transform="translate(185,212)"/>
<path d="M0 0 C-0.556875 0.268125 -1.11375 0.53625 -1.6875 0.8125 C-7.07195042 3.53577357 -7.07195042 3.53577357 -11 8 C-11.33 7.01 -11.66 6.02 -12 5 C-5.79166667 -1.37171053 -5.79166667 -1.37171053 0 0 Z " fill="#59977C" transform="translate(241,131)"/>
<path d="M0 0 C-1 3 -1 3 -3 4 C-4.54023996 4.06950541 -6.08334988 4.08452357 -7.625 4.0625 C-8.85089844 4.04896484 -8.85089844 4.04896484 -10.1015625 4.03515625 C-11.04128906 4.01775391 -11.04128906 4.01775391 -12 4 C-12.33 3.34 -12.66 2.68 -13 2 C-12.06027344 1.90912109 -12.06027344 1.90912109 -11.1015625 1.81640625 C-9.87566406 1.69072266 -9.87566406 1.69072266 -8.625 1.5625 C-7.81289062 1.48128906 -7.00078125 1.40007812 -6.1640625 1.31640625 C-3.85304959 0.97851447 -2.33455672 0 0 0 Z " fill="#548D74" transform="translate(141,249)"/>
<path d="M0 0 C0.66 0.66 1.32 1.32 2 2 C1.21625 2.598125 0.4325 3.19625 -0.375 3.8125 C-3.14574323 5.91085249 -3.14574323 5.91085249 -5 9 C-5.99 9 -6.98 9 -8 9 C-8 7.35 -8 5.7 -8 4 C-6.68 4 -5.36 4 -4 4 C-1.74934898 2.08333079 -1.74934898 2.08333079 0 0 Z " fill="#649D80" transform="translate(200,259)"/>
<path d="M0 0 C2.875 0.3125 2.875 0.3125 6 1 C8 4 8 4 7.625 6.6875 C7.41875 7.450625 7.2125 8.21375 7 9 C6.34 8.67 5.68 8.34 5 8 C5 6.68 5 5.36 5 4 C3.02 3.34 1.04 2.68 -1 2 C-0.67 1.34 -0.34 0.68 0 0 Z " fill="#66A78E" transform="translate(83,199)"/>
<path d="M0 0 C0.66 0.33 1.32 0.66 2 1 C1.67 4.96 1.34 8.92 1 13 C0.01 12.67 -0.98 12.34 -2 12 C-2.28571429 3.42857143 -2.28571429 3.42857143 0 0 Z " fill="#468A67" transform="translate(213,159)"/>
<path d="M0 0 C6.625 0.75 6.625 0.75 10 3 C9.67 3.66 9.34 4.32 9 5 C4.545 4.01 4.545 4.01 0 3 C0 2.01 0 1.02 0 0 Z " fill="#579578" transform="translate(242,129)"/>
<path d="M0 0 C3.67758005 3.28355362 5.81389118 6.62778237 8 11 C7.67 11.66 7.34 12.32 7 13 C3.78119883 9.2064129 1.3836813 5.34170523 -1 1 C-0.67 0.67 -0.34 0.34 0 0 Z " fill="#649A82" transform="translate(103,123)"/>
<path d="M0 0 C0.33 0 0.66 0 1 0 C1.1079859 2.43868168 1.18726589 4.87259133 1.25 7.3125 C1.28351562 8.00279297 1.31703125 8.69308594 1.3515625 9.40429688 C1.390625 11.42578125 1.390625 11.42578125 1 15 C-1.015625 16.98046875 -1.015625 16.98046875 -3 18 C-3.66 17.67 -4.32 17.34 -5 17 C-3.625 15 -3.625 15 -2 13 C-1.34 13 -0.68 13 0 13 C0 8.71 0 4.42 0 0 Z " fill="#58987B" transform="translate(57,102)"/>
<path d="M0 0 C0.66 0.66 1.32 1.32 2 2 C1.24088921 3.48521677 0.46728766 4.96303425 -0.3125 6.4375 C-0.95638672 7.67306641 -0.95638672 7.67306641 -1.61328125 8.93359375 C-3 11 -3 11 -6 12 C-5.35494404 8.51669784 -4.01782732 5.90567134 -2 3 C-1.34 3 -0.68 3 0 3 C0 2.01 0 1.02 0 0 Z " fill="#5B9379" transform="translate(164,258)"/>
<path d="M0 0 C1.9140625 0.71875 1.9140625 0.71875 4 2 C4.8984375 4.09375 4.8984375 4.09375 5.375 6.5 C5.54773438 7.2940625 5.72046875 8.088125 5.8984375 8.90625 C5.93195313 9.5971875 5.96546875 10.288125 6 11 C5.34 11.66 4.68 12.32 4 13 C3.87882812 12.39671875 3.75765625 11.7934375 3.6328125 11.171875 C3.46523438 10.37265625 3.29765625 9.5734375 3.125 8.75 C2.96257812 7.96109375 2.80015625 7.1721875 2.6328125 6.359375 C2.00849925 4.03168856 1.15161458 2.10968048 0 0 Z " fill="#5A9D7A" transform="translate(254,136)"/>
<path d="M0 0 C3.42106076 0.25341191 4.30782184 1.30782184 6.8125 3.8125 C9 7 9 7 8.8125 9.375 C8.544375 9.91125 8.27625 10.4475 8 11 C7.566875 10.236875 7.13375 9.47375 6.6875 8.6875 C5.16247642 6.03713747 5.16247642 6.03713747 3.3125 4.3125 C2.879375 3.879375 2.44625 3.44625 2 3 C2 2.34 2 1.68 2 1 C1.34 0.67 0.68 0.34 0 0 Z " fill="#5C977D" transform="translate(163,46)"/>
<path d="M0 0 C-1.5830577 4.2742558 -4.50568404 6.26531794 -8 9 C-7.53918323 4.85264908 -4.48412936 0 0 0 Z " fill="#58967D" transform="translate(233,228)"/>
<path d="M0 0 C-0.33 0.66 -0.66 1.32 -1 2 C-3.50390625 2.4140625 -3.50390625 2.4140625 -6.5625 2.625 C-7.57441406 2.69976562 -8.58632812 2.77453125 -9.62890625 2.8515625 C-10.41136719 2.90054688 -11.19382812 2.94953125 -12 3 C-12 2.34 -12 1.68 -12 1 C-8.0186217 -0.3271261 -4.14954773 -0.06915913 0 0 Z " fill="#5C977B" transform="translate(100,62)"/>
<path d="M0 0 C0.125 5.75 0.125 5.75 -1 8 C-2.32 7.67 -3.64 7.34 -5 7 C-4.39816251 4.97954558 -3.72693904 2.97888961 -3 1 C-1 0 -1 0 0 0 Z " fill="#548F70" transform="translate(251,143)"/>
<path d="M0 0 C0.33 0.99 0.66 1.98 1 3 C-0.1196986 4.00593243 -1.2459412 5.0045849 -2.375 6 C-3.00148437 6.556875 -3.62796875 7.11375 -4.2734375 7.6875 C-6 9 -6 9 -8 9 C-7.67 8.01 -7.34 7.02 -7 6 C-6.195625 5.690625 -5.39125 5.38125 -4.5625 5.0625 C-1.85842507 4.23391841 -1.85842507 4.23391841 -0.6875 1.875 C-0.460625 1.25625 -0.23375 0.6375 0 0 Z " fill="#639E84" transform="translate(138,134)"/>
<path d="M0 0 C0.33 0 0.66 0 1 0 C1 1.98 1 3.96 1 6 C0.34 6 -0.32 6 -1 6 C-0.67 6.99 -0.34 7.98 0 9 C-0.61875 9.144375 -1.2375 9.28875 -1.875 9.4375 C-4.03258322 9.93152225 -4.03258322 9.93152225 -6 11 C-4.18690997 7.22272911 -2.0926741 3.62730178 0 0 Z " fill="#5A9379" transform="translate(133,124)"/>
<path d="M0 0 C2.79958342 4.19937513 3.11598878 6.09705438 3.0625 11.125 C3.05347656 12.22070312 3.04445312 13.31640625 3.03515625 14.4453125 C3.02355469 15.28835937 3.01195312 16.13140625 3 17 C2.67 17 2.34 17 2 17 C2 13.7 2 10.4 2 7 C1.34 7 0.68 7 0 7 C0 4.69 0 2.38 0 0 Z " fill="#529A73" transform="translate(147,87)"/>
<path d="M0 0 C1.9375 0.6875 1.9375 0.6875 4 2 C4.75 4.625 4.75 4.625 5 7 C4.01 7.33 3.02 7.66 2 8 C1.34 5.36 0.68 2.72 0 0 Z " fill="#549174" transform="translate(161,57)"/>
<path d="M0 0 C0.66 0.66 1.32 1.32 2 2 C-0.36292656 4.52588702 -1.66462511 5.88820837 -5 7 C-5 6.01 -5 5.02 -5 4 C-2.5 1.8125 -2.5 1.8125 0 0 Z " fill="#589077" transform="translate(116,45)"/>
<path d="M0 0 C0.99 0.33 1.98 0.66 3 1 C5.00875442 0.72428861 7.01178687 0.39764263 9 0 C9 0.66 9 1.32 9 2 C6.09399739 3.25664978 4.20395416 4 1 4 C0.67 2.68 0.34 1.36 0 0 Z " fill="#59977B" transform="translate(121,142)"/>
<path d="M0 0 C0.66 0.33 1.32 0.66 2 1 C0.61122646 4.35620271 -0.91677965 6.07298728 -4 8 C-4.66 8 -5.32 8 -6 8 C-5.34 6.68 -4.68 5.36 -4 4 C-3.34 4 -2.68 4 -2 4 C-2 3.34 -2 2.68 -2 2 C-1.34 2 -0.68 2 0 2 C0 1.34 0 0.68 0 0 Z " fill="#5A9179" transform="translate(120,52)"/>
<path d="M0 0 C3 1 3 1 4.25 2.75 C5.17574966 5.52724898 4.77341204 7.21571665 4 10 C1.81024227 6.71536341 1.00193437 3.79303725 0 0 Z " fill="#619980" transform="translate(226,77)"/>
<path d="M0 0 C0.99 0 1.98 0 3 0 C6.125 6.625 6.125 6.625 5 10 C3.35 6.7 1.7 3.4 0 0 Z " fill="#5A947C" transform="translate(48,227)"/>
<path d="M0 0 C0.33 0.66 0.66 1.32 1 2 C1.66 2 2.32 2 3 2 C3.66 3.98 4.32 5.96 5 8 C4.01 8.66 3.02 9.32 2 10 C1.33333333 6.66666667 0.66666667 3.33333333 0 0 Z " fill="#559873" transform="translate(55,220)"/>
<path d="M0 0 C0.66 0 1.32 0 2 0 C0.90931332 3.77545388 0.0916909 6.47043472 -3 9 C-3 7.02 -3 5.04 -3 3 C-2.34 3 -1.68 3 -1 3 C-0.67 2.01 -0.34 1.02 0 0 Z " fill="#59947B" transform="translate(142,127)"/>
<path d="M0 0 C7.66742597 5.0022779 7.66742597 5.0022779 9 9 C5.05860922 7.33248852 2.2107188 4.77289351 -1 2 C-0.67 1.34 -0.34 0.68 0 0 Z " fill="#5F9F87" transform="translate(88,120)"/>
<path d="M0 0 C0.33 0 0.66 0 1 0 C1 1.98 1 3.96 1 6 C1.66 6.33 2.32 6.66 3 7 C1.68 7.99 0.36 8.98 -1 10 C-1.125 3.375 -1.125 3.375 0 0 Z " fill="#458867" transform="translate(195,255)"/>
<path d="M0 0 C-1.11666174 3.34998521 -1.74694925 3.79340222 -4.5625 5.6875 C-5.20316406 6.12449219 -5.84382813 6.56148437 -6.50390625 7.01171875 C-6.99761719 7.33785156 -7.49132812 7.66398438 -8 8 C-6.65580512 3.85539913 -4.87800266 0 0 0 Z " fill="#639B82" transform="translate(111,223)"/>
<path d="M0 0 C1 3 1 3 1 7 C-0.65 7.33 -2.3 7.66 -4 8 C-3.34 6.02 -2.68 4.04 -2 2 C-1.34 2 -0.68 2 0 2 C0 1.34 0 0.68 0 0 Z " fill="#579476" transform="translate(222,90)"/>
<path d="M0 0 C1.98 0 3.96 0 6 0 C6 0.66 6 1.32 6 2 C3.69 2.33 1.38 2.66 -1 3 C-0.67 2.01 -0.34 1.02 0 0 Z " fill="#549672" transform="translate(83,207)"/>
<path d="M0 0 C3.73639216 1.24546405 4.18756513 2.63404953 6 6 C5.01 6.33 4.02 6.66 3 7 C0 2.25 0 2.25 0 0 Z " fill="#548F77" transform="translate(111,86)"/>
<path d="M0 0 C1.32 0 2.64 0 4 0 C3.67 1.32 3.34 2.64 3 4 C1.35 4 -0.3 4 -2 4 C-1.34 2.68 -0.68 1.36 0 0 Z " fill="#4F9072" transform="translate(169,58)"/>
<path d="M0 0 C2.97 0.495 2.97 0.495 6 1 C5.67 1.66 5.34 2.32 5 3 C3.02 3 1.04 3 -1 3 C-0.67 2.01 -0.34 1.02 0 0 Z " fill="#58957A" transform="translate(83,251)"/>
<path d="M0 0 C-1.39332574 3.36720387 -2.9789286 4.9859524 -6 7 C-5.37162381 3.35541809 -4.14650034 0 0 0 Z " fill="#5C967C" transform="translate(205,244)"/>
<path d="M0 0 C3 1 3 1 4.75 3.4375 C5.36875 4.7059375 5.36875 4.7059375 6 6 C5.67 6.66 5.34 7.32 5 8 C2.27573689 5.64722731 1.1858237 3.37503669 0 0 Z " fill="#669982" transform="translate(136,181)"/>
<path d="M0 0 C2.9719385 1.12451727 5.33440687 2.22293791 8 4 C8 4.66 8 5.32 8 6 C5.0280615 4.87548273 2.66559313 3.77706209 0 2 C0 1.34 0 0.68 0 0 Z " fill="#649A84" transform="translate(87,167)"/>
<path d="M0 0 C0.99 0.495 0.99 0.495 2 1 C2 1.66 2 2.32 2 3 C2.99 3.33 3.98 3.66 5 4 C5.33 4.99 5.66 5.98 6 7 C4.125 6.6875 4.125 6.6875 2 6 C0 3 0 3 0 0 Z " fill="#609880" transform="translate(167,159)"/>
<path d="M0 0 C1.70884005 1.62339805 3.37446717 3.29319053 5 5 C5 5.66 5 6.32 5 7 C2 6 2 6 0 4 C0 2.68 0 1.36 0 0 Z " fill="#589174" transform="translate(98,117)"/>
<path d="M0 0 C4.455 1.98 4.455 1.98 9 4 C9 4.33 9 4.66 9 5 C5.625 4.75 5.625 4.75 2 4 C1.34 2.68 0.68 1.36 0 0 Z " fill="#5C9E81" transform="translate(197,104)"/>
<path d="M0 0 C1.875 0.3125 1.875 0.3125 4 1 C4.66 1.99 5.32 2.98 6 4 C5.67 4.99 5.34 5.98 5 7 C0 1.125 0 1.125 0 0 Z " fill="#579577" transform="translate(191,99)"/>
<path d="M0 0 C2.12038635 2.61514317 4.13091744 5.19637616 6 8 C5.01 8 4.02 8 3 8 C1.02 4.535 1.02 4.535 -1 1 C-0.67 0.67 -0.34 0.34 0 0 Z " fill="#619A80" transform="translate(104,89)"/>
<path d="M0 0 C0.99 0.33 1.98 0.66 3 1 C2.67 2.65 2.34 4.3 2 6 C0.68 5.01 -0.64 4.02 -2 3 C-1.34 3 -0.68 3 0 3 C0 2.01 0 1.02 0 0 Z " fill="#549472" transform="translate(229,89)"/>
</svg>
